ISO-10303-21;
HEADER;
/* Generated by software containing ST-Developer
 * from STEP Tools, Inc. (www.steptools.com) 
 */

FILE_DESCRIPTION(
/* description */ (''),
/* implementation_level */ '2;1');

FILE_NAME(
/* name */ 'shadowless_push.step',
/* time_stamp */ '2026-09-12T19:36:05-06:00',
/* author */ (''),
/* organization */ (''),
/* preprocessor_version */ 'ST-DEVELOPER v20.1',
/* originating_system */ 'Autodesk Translation Framework v15.8.0.0',
/* authorisation */ '');

FILE_SCHEMA (('AUTOMOTIVE_DESIGN { 1 0 10303 214 3 1 1 }'));
ENDSEC;

DATA;
#10=MECHANICAL_DESIGN_GEOMETRIC_PRESENTATION_REPRESENTATION('',(#13),#275);
#11=SHAPE_REPRESENTATION_RELATIONSHIP('SRR','None',#282,#12);
#12=ADVANCED_BREP_SHAPE_REPRESENTATION('',(#14),#274);
#13=STYLED_ITEM('',(#291),#14);
#14=MANIFOLD_SOLID_BREP('Body101',#108);
#15=FACE_BOUND('',#33,.T.);
#16=FACE_BOUND('',#36,.T.);
#17=PLANE('',#126);
#18=PLANE('',#128);
#19=PLANE('',#131);
#20=CIRCLE('',#124,2.5);
#21=CIRCLE('',#125,2.5);
#22=CIRCLE('',#127,4.00000005960464);
#23=CIRCLE('',#129,4.);
#24=FACE_OUTER_BOUND('',#30,.T.);
#25=FACE_OUTER_BOUND('',#31,.T.);
#26=FACE_OUTER_BOUND('',#32,.T.);
#27=FACE_OUTER_BOUND('',#34,.T.);
#28=FACE_OUTER_BOUND('',#35,.T.);
#29=FACE_OUTER_BOUND('',#37,.T.);
#30=EDGE_LOOP('',(#73,#74,#75,#76,#77,#78,#79));
#31=EDGE_LOOP('',(#80,#81,#82,#83));
#32=EDGE_LOOP('',(#84));
#33=EDGE_LOOP('',(#85));
#34=EDGE_LOOP('',(#86));
#35=EDGE_LOOP('',(#87,#88,#89,#90,#91,#92,#93,#94,#95));
#36=EDGE_LOOP('',(#96,#97));
#37=EDGE_LOOP('',(#98));
#38=LINE('',#207,#42);
#39=LINE('',#260,#43);
#40=LINE('',#269,#44);
#41=LINE('',#270,#45);
#42=VECTOR('',#136,2.5);
#43=VECTOR('',#141,2.5);
#44=VECTOR('',#154,4.00000005960464);
#45=VECTOR('',#155,4.00000005960464);
#46=B_SPLINE_CURVE_WITH_KNOTS('',3,(#162,#163,#164,#165,#166,#167,#168,
#169,#170,#171,#172,#173,#174,#175,#176,#177,#178,#179,#180,#181,#182,#183,
#184,#185,#186,#187,#188,#189,#190,#191,#192,#193),.UNSPECIFIED.,.F.,.F.,
(4,2,2,2,2,2,2,2,2,2,2,2,2,2,2,4),(0.,0.148215139352632,0.296430278705263,
0.440882867877866,0.484269206070469,0.527655544263072,0.571041882455675,
0.614428220648277,0.75888080982088,0.90709594917351,1.05531108852614,1.17987512013212,
1.24215713593511,1.3044391517381,1.38564044625159,1.46684174076507),
 .UNSPECIFIED.);
#47=B_SPLINE_CURVE_WITH_KNOTS('',3,(#194,#195,#196,#197,#198,#199,#200,
#201,#202,#203,#204,#205),.UNSPECIFIED.,.F.,.F.,(4,2,2,2,2,4),(1.46684174076507,
1.54804303527856,1.62924432979205,1.69152634559504,1.75380836139803,1.87837239300401),
 .UNSPECIFIED.);
#48=B_SPLINE_CURVE_WITH_KNOTS('',3,(#209,#210,#211,#212,#213,#214,#215,
#216,#217,#218,#219,#220,#221,#222,#223,#224,#225,#226,#227,#228,#229,#230),
 .UNSPECIFIED.,.F.,.F.,(4,2,2,2,2,2,2,2,2,2,4),(0.411530652238933,0.49273194675242,
0.573933241265908,0.636215257068897,0.698497272871886,0.823061304477865,
0.971276443830497,1.11949158318313,1.26394417235573,1.30733051054833,1.35071684874093),
 .UNSPECIFIED.);
#49=B_SPLINE_CURVE_WITH_KNOTS('',3,(#232,#233,#234,#235,#236,#237,#238,
#239,#240,#241,#242,#243),.UNSPECIFIED.,.F.,.F.,(4,2,2,2,2,4),(0.,0.124564031605979,
0.186846047408969,0.249128063211958,0.330329357725446,0.411530652238933),
 .UNSPECIFIED.);
#50=B_SPLINE_CURVE_WITH_KNOTS('',3,(#244,#245,#246,#247,#248,#249,#250,
#251,#252,#253,#254,#255),.UNSPECIFIED.,.F.,.F.,(4,2,2,2,2,4),(1.35071684874093,
1.39410318693354,1.43748952512614,1.58194211429874,1.73015725365137,1.878372393004),
 .UNSPECIFIED.);
#51=VERTEX_POINT('',#160);
#52=VERTEX_POINT('',#161);
#53=VERTEX_POINT('',#206);
#54=VERTEX_POINT('',#208);
#55=VERTEX_POINT('',#231);
#56=VERTEX_POINT('',#257);
#57=VERTEX_POINT('',#259);
#58=VERTEX_POINT('',#263);
#59=VERTEX_POINT('',#266);
#60=EDGE_CURVE('',#51,#52,#46,.T.);
#61=EDGE_CURVE('',#52,#51,#47,.T.);
#62=EDGE_CURVE('',#52,#53,#38,.T.);
#63=EDGE_CURVE('',#54,#53,#48,.T.);
#64=EDGE_CURVE('',#55,#54,#49,.T.);
#65=EDGE_CURVE('',#53,#55,#50,.T.);
#66=EDGE_CURVE('',#56,#56,#20,.T.);
#67=EDGE_CURVE('',#56,#57,#39,.T.);
#68=EDGE_CURVE('',#57,#57,#21,.T.);
#69=EDGE_CURVE('',#58,#58,#22,.T.);
#70=EDGE_CURVE('',#59,#59,#23,.T.);
#71=EDGE_CURVE('',#58,#54,#40,.T.);
#72=EDGE_CURVE('',#53,#59,#41,.T.);
#73=ORIENTED_EDGE('',*,*,#60,.F.);
#74=ORIENTED_EDGE('',*,*,#61,.F.);
#75=ORIENTED_EDGE('',*,*,#62,.T.);
#76=ORIENTED_EDGE('',*,*,#63,.F.);
#77=ORIENTED_EDGE('',*,*,#64,.F.);
#78=ORIENTED_EDGE('',*,*,#65,.F.);
#79=ORIENTED_EDGE('',*,*,#62,.F.);
#80=ORIENTED_EDGE('',*,*,#66,.F.);
#81=ORIENTED_EDGE('',*,*,#67,.T.);
#82=ORIENTED_EDGE('',*,*,#68,.T.);
#83=ORIENTED_EDGE('',*,*,#67,.F.);
#84=ORIENTED_EDGE('',*,*,#69,.F.);
#85=ORIENTED_EDGE('',*,*,#68,.F.);
#86=ORIENTED_EDGE('',*,*,#70,.T.);
#87=ORIENTED_EDGE('',*,*,#69,.T.);
#88=ORIENTED_EDGE('',*,*,#71,.T.);
#89=ORIENTED_EDGE('',*,*,#63,.T.);
#90=ORIENTED_EDGE('',*,*,#72,.T.);
#91=ORIENTED_EDGE('',*,*,#70,.F.);
#92=ORIENTED_EDGE('',*,*,#72,.F.);
#93=ORIENTED_EDGE('',*,*,#65,.T.);
#94=ORIENTED_EDGE('',*,*,#64,.T.);
#95=ORIENTED_EDGE('',*,*,#71,.F.);
#96=ORIENTED_EDGE('',*,*,#60,.T.);
#97=ORIENTED_EDGE('',*,*,#61,.T.);
#98=ORIENTED_EDGE('',*,*,#66,.T.);
#99=CYLINDRICAL_SURFACE('',#122,2.5);
#100=CYLINDRICAL_SURFACE('',#123,2.5);
#101=CYLINDRICAL_SURFACE('',#130,4.00000005960464);
#102=ADVANCED_FACE('',(#24),#99,.F.);
#103=ADVANCED_FACE('',(#25),#100,.T.);
#104=ADVANCED_FACE('',(#26,#15),#17,.T.);
#105=ADVANCED_FACE('',(#27),#18,.T.);
#106=ADVANCED_FACE('',(#28,#16),#101,.T.);
#107=ADVANCED_FACE('',(#29),#19,.T.);
#108=CLOSED_SHELL('',(#102,#103,#104,#105,#106,#107));
#109=DERIVED_UNIT_ELEMENT(#111,1.);
#110=DERIVED_UNIT_ELEMENT(#277,-3.);
#111=(
MASS_UNIT()
NAMED_UNIT(*)
SI_UNIT(.KILO.,.GRAM.)
);
#112=DERIVED_UNIT((#109,#110));
#113=MEASURE_REPRESENTATION_ITEM('density measure',
POSITIVE_RATIO_MEASURE(7850.),#112);
#114=PROPERTY_DEFINITION_REPRESENTATION(#119,#116);
#115=PROPERTY_DEFINITION_REPRESENTATION(#120,#117);
#116=REPRESENTATION('material name',(#118),#274);
#117=REPRESENTATION('density',(#113),#274);
#118=DESCRIPTIVE_REPRESENTATION_ITEM('Steel','Steel');
#119=PROPERTY_DEFINITION('material property','material name',#284);
#120=PROPERTY_DEFINITION('material property','density of part',#284);
#121=AXIS2_PLACEMENT_3D('',#158,#132,#133);
#122=AXIS2_PLACEMENT_3D('',#159,#134,#135);
#123=AXIS2_PLACEMENT_3D('',#256,#137,#138);
#124=AXIS2_PLACEMENT_3D('',#258,#139,#140);
#125=AXIS2_PLACEMENT_3D('',#261,#142,#143);
#126=AXIS2_PLACEMENT_3D('',#262,#144,#145);
#127=AXIS2_PLACEMENT_3D('',#264,#146,#147);
#128=AXIS2_PLACEMENT_3D('',#265,#148,#149);
#129=AXIS2_PLACEMENT_3D('',#267,#150,#151);
#130=AXIS2_PLACEMENT_3D('',#268,#152,#153);
#131=AXIS2_PLACEMENT_3D('',#271,#156,#157);
#132=DIRECTION('axis',(0.,0.,1.));
#133=DIRECTION('refdir',(1.,0.,0.));
#134=DIRECTION('center_axis',(-1.,2.77555756156289E-16,-1.05879118380485E-22));
#135=DIRECTION('ref_axis',(-5.15531465442059E-61,-1.,-1.05879118395893E-22));
#136=DIRECTION('',(-1.,2.77555756156289E-16,-1.05879118380485E-22));
#137=DIRECTION('center_axis',(-0.707106781186547,0.707106781186548,1.08947755170087E-32));
#138=DIRECTION('ref_axis',(0.707106781186548,0.707106781186547,1.49735685196684E-22));
#139=DIRECTION('center_axis',(0.707106781186547,-0.707106781186548,-1.08947755170087E-32));
#140=DIRECTION('ref_axis',(0.707106781186548,0.707106781186547,1.49735685196684E-22));
#141=DIRECTION('',(-0.707106781186547,0.707106781186548,1.08947755170087E-32));
#142=DIRECTION('center_axis',(0.707106781186547,-0.707106781186548,-1.08947755170087E-32));
#143=DIRECTION('ref_axis',(0.707106781186548,0.707106781186547,1.49735685196684E-22));
#144=DIRECTION('center_axis',(0.707106781186547,-0.707106781186548,-1.08947755170087E-32));
#145=DIRECTION('ref_axis',(0.707106781186548,0.707106781186547,1.49735685196684E-22));
#146=DIRECTION('center_axis',(-0.707106781186547,0.707106781186548,1.08947755170087E-32));
#147=DIRECTION('ref_axis',(0.707106781186548,0.707106781186547,1.49735685196684E-22));
#148=DIRECTION('center_axis',(-0.707106781186547,0.707106781186548,1.08947755170087E-32));
#149=DIRECTION('ref_axis',(-0.707106781186548,-0.707106781186547,-1.49735685196684E-22));
#150=DIRECTION('center_axis',(-0.707106781186547,0.707106781186548,1.08947755170087E-32));
#151=DIRECTION('ref_axis',(-0.707106781186548,-0.707106781186547,-1.49735685196684E-22));
#152=DIRECTION('center_axis',(0.707106781186547,-0.707106781186548,-1.08947755170087E-32));
#153=DIRECTION('ref_axis',(0.707106781186548,0.707106781186547,1.49735685196684E-22));
#154=DIRECTION('',(-0.707106781186547,0.707106781186548,1.08947755170087E-32));
#155=DIRECTION('',(-0.707106781186547,0.707106781186548,1.08947755170087E-32));
#156=DIRECTION('center_axis',(0.707106781186547,-0.707106781186548,-1.08947755170087E-32));
#157=DIRECTION('ref_axis',(0.707106781186548,0.707106781186547,1.49735685196684E-22));
#158=CARTESIAN_POINT('',(0.,0.,0.));
#159=CARTESIAN_POINT('Origin',(121.035150843726,286.550291330937,45.0000006705523));
#160=CARTESIAN_POINT('',(123.093166760131,286.550291330937,42.5000006705523));
#161=CARTESIAN_POINT('',(121.834140576459,289.050291330937,45.0000006705523));
#162=CARTESIAN_POINT('Ctrl Pts',(123.093166760131,286.550291330937,42.5000006705523));
#163=CARTESIAN_POINT('Ctrl Pts',(123.442513193833,286.200944897234,42.5000006705523));
#164=CARTESIAN_POINT('Ctrl Pts',(123.858617053194,285.870344701893,42.5724835639173));
#165=CARTESIAN_POINT('Ctrl Pts',(124.707854351207,285.273486544943,42.8263088165176));
#166=CARTESIAN_POINT('Ctrl Pts',(125.139988616944,285.006195658213,43.0085624373436));
#167=CARTESIAN_POINT('Ctrl Pts',(125.889375356596,284.564531157469,43.4502269380873));
#168=CARTESIAN_POINT('Ctrl Pts',(126.30791687361,284.333225394869,43.7745500039071));
#169=CARTESIAN_POINT('Ctrl Pts',(126.638778307226,284.154521054787,44.2751835468192));
#170=CARTESIAN_POINT('Ctrl Pts',(126.710520193944,284.116121693622,44.4113427439104));
#171=CARTESIAN_POINT('Ctrl Pts',(126.808572366629,284.06383426349,44.7012844751978));
#172=CARTESIAN_POINT('Ctrl Pts',(126.834140576459,284.050291330937,44.8553795432436));
#173=CARTESIAN_POINT('Ctrl Pts',(126.834140576459,284.050291330937,45.1446217978609));
#174=CARTESIAN_POINT('Ctrl Pts',(126.808572366629,284.06383426349,45.2987168659067));
#175=CARTESIAN_POINT('Ctrl Pts',(126.710520193944,284.116121693622,45.5886585971941));
#176=CARTESIAN_POINT('Ctrl Pts',(126.638778307226,284.154521054787,45.7248177942854));
#177=CARTESIAN_POINT('Ctrl Pts',(126.30791687361,284.333225394869,46.2254513371974));
#178=CARTESIAN_POINT('Ctrl Pts',(125.889375356596,284.564531157469,46.5497744030172));
#179=CARTESIAN_POINT('Ctrl Pts',(125.139988616944,285.006195658213,46.9914389037609));
#180=CARTESIAN_POINT('Ctrl Pts',(124.707854351207,285.273486544943,47.173692524587));
#181=CARTESIAN_POINT('Ctrl Pts',(123.858617053194,285.870344701893,47.4275177771872));
#182=CARTESIAN_POINT('Ctrl Pts',(123.442513193833,286.200944897234,47.5000006705523));
#183=CARTESIAN_POINT('Ctrl Pts',(122.799566521996,286.843891569072,47.5000006705523));
#184=CARTESIAN_POINT('Ctrl Pts',(122.516782919168,287.195190390972,47.4452736391492));
#185=CARTESIAN_POINT('Ctrl Pts',(122.217439037113,287.71961503787,47.2178747030132));
#186=CARTESIAN_POINT('Ctrl Pts',(122.136640335999,287.893780936845,47.1180770055452));
#187=CARTESIAN_POINT('Ctrl Pts',(122.011594612845,288.217912664761,46.8735669684391));
#188=CARTESIAN_POINT('Ctrl Pts',(121.966932104748,288.367726918537,46.7288663803424));
#189=CARTESIAN_POINT('Ctrl Pts',(121.89221780472,288.664253523899,46.3611174102417));
#190=CARTESIAN_POINT('Ctrl Pts',(121.867330541899,288.81047997202,46.1068814517466));
#191=CARTESIAN_POINT('Ctrl Pts',(121.838755350265,289.003494799836,45.5616326455439));
#192=CARTESIAN_POINT('Ctrl Pts',(121.834140576459,289.050291330937,45.2706716522639));
#193=CARTESIAN_POINT('Ctrl Pts',(121.834140576459,289.050291330937,45.0000006705523));
#194=CARTESIAN_POINT('Ctrl Pts',(121.834140576459,289.050291330937,45.0000006705522));
#195=CARTESIAN_POINT('Ctrl Pts',(121.834140576459,289.050291330937,44.7293296888406));
#196=CARTESIAN_POINT('Ctrl Pts',(121.838755350265,289.003494799836,44.4383686955606));
#197=CARTESIAN_POINT('Ctrl Pts',(121.867330541899,288.81047997202,43.8931198893579));
#198=CARTESIAN_POINT('Ctrl Pts',(121.89221780472,288.664253523899,43.6388839308628));
#199=CARTESIAN_POINT('Ctrl Pts',(121.966932104748,288.367726918536,43.2711349607621));
#200=CARTESIAN_POINT('Ctrl Pts',(122.011594612845,288.217912664761,43.1264343726654));
#201=CARTESIAN_POINT('Ctrl Pts',(122.136640335999,287.893780936845,42.8819243355593));
#202=CARTESIAN_POINT('Ctrl Pts',(122.217439037113,287.71961503787,42.7821266380913));
#203=CARTESIAN_POINT('Ctrl Pts',(122.516782919168,287.195190390972,42.5547277019553));
#204=CARTESIAN_POINT('Ctrl Pts',(122.799566521996,286.843891569072,42.5000006705523));
#205=CARTESIAN_POINT('Ctrl Pts',(123.093166760131,286.550291330937,42.5000006705523));
#206=CARTESIAN_POINT('',(110.520432077475,289.050291330937,45.0000006705523));
#207=CARTESIAN_POINT('',(121.035150843726,289.050291330937,45.0000006705523));
#208=CARTESIAN_POINT('',(115.520432077475,284.050291330937,45.0000006705523));
#209=CARTESIAN_POINT('Ctrl Pts',(115.520432077475,284.050291330937,45.0000006705523));
#210=CARTESIAN_POINT('Ctrl Pts',(115.520432077475,284.050291330937,44.7293296888406));
#211=CARTESIAN_POINT('Ctrl Pts',(115.515817303669,284.097087862037,44.4383686955606));
#212=CARTESIAN_POINT('Ctrl Pts',(115.487242112036,284.290102689854,43.8931198893579));
#213=CARTESIAN_POINT('Ctrl Pts',(115.462354849214,284.436329137975,43.6388839308628));
#214=CARTESIAN_POINT('Ctrl Pts',(115.387640549186,284.732855743337,43.2711349607621));
#215=CARTESIAN_POINT('Ctrl Pts',(115.34297804109,284.882669997113,43.1264343726655));
#216=CARTESIAN_POINT('Ctrl Pts',(115.217932317935,285.206801725028,42.8819243355593));
#217=CARTESIAN_POINT('Ctrl Pts',(115.137133616821,285.380967624004,42.7821266380913));
#218=CARTESIAN_POINT('Ctrl Pts',(114.837789734766,285.905392270901,42.5547277019553));
#219=CARTESIAN_POINT('Ctrl Pts',(114.555006131938,286.256691092802,42.5000006705523));
#220=CARTESIAN_POINT('Ctrl Pts',(113.912059460101,286.899637764639,42.5000006705523));
#221=CARTESIAN_POINT('Ctrl Pts',(113.49595560074,287.230237959981,42.5724835639173));
#222=CARTESIAN_POINT('Ctrl Pts',(112.646718302727,287.827096116931,42.8263088165176));
#223=CARTESIAN_POINT('Ctrl Pts',(112.214584036991,288.094387003661,43.0085624373436));
#224=CARTESIAN_POINT('Ctrl Pts',(111.465197297338,288.536051504405,43.4502269380873));
#225=CARTESIAN_POINT('Ctrl Pts',(111.046655780324,288.767357267004,43.7745500039071));
#226=CARTESIAN_POINT('Ctrl Pts',(110.715794346707,288.946061607087,44.2751835468191));
#227=CARTESIAN_POINT('Ctrl Pts',(110.644052459991,288.984460968251,44.4113427439104));
#228=CARTESIAN_POINT('Ctrl Pts',(110.546000287305,289.036748398384,44.7012844751978));
#229=CARTESIAN_POINT('Ctrl Pts',(110.520432077475,289.050291330937,44.8553795432436));
#230=CARTESIAN_POINT('Ctrl Pts',(110.520432077475,289.050291330937,45.0000006705523));
#231=CARTESIAN_POINT('',(114.261405893803,286.550291330937,47.5000006705523));
#232=CARTESIAN_POINT('Ctrl Pts',(114.261405893803,286.550291330937,47.5000006705523));
#233=CARTESIAN_POINT('Ctrl Pts',(114.555006131938,286.256691092802,47.5000006705523));
#234=CARTESIAN_POINT('Ctrl Pts',(114.837789734766,285.905392270901,47.4452736391492));
#235=CARTESIAN_POINT('Ctrl Pts',(115.137133616821,285.380967624004,47.2178747030132));
#236=CARTESIAN_POINT('Ctrl Pts',(115.217932317935,285.206801725028,47.1180770055452));
#237=CARTESIAN_POINT('Ctrl Pts',(115.34297804109,284.882669997113,46.8735669684391));
#238=CARTESIAN_POINT('Ctrl Pts',(115.387640549186,284.732855743337,46.7288663803424));
#239=CARTESIAN_POINT('Ctrl Pts',(115.462354849214,284.436329137975,46.3611174102417));
#240=CARTESIAN_POINT('Ctrl Pts',(115.487242112036,284.290102689854,46.1068814517466));
#241=CARTESIAN_POINT('Ctrl Pts',(115.515817303669,284.097087862037,45.5616326455439));
#242=CARTESIAN_POINT('Ctrl Pts',(115.520432077475,284.050291330937,45.2706716522639));
#243=CARTESIAN_POINT('Ctrl Pts',(115.520432077475,284.050291330937,45.0000006705523));
#244=CARTESIAN_POINT('Ctrl Pts',(110.520432077475,289.050291330937,45.0000006705523));
#245=CARTESIAN_POINT('Ctrl Pts',(110.520432077475,289.050291330937,45.1446217978609));
#246=CARTESIAN_POINT('Ctrl Pts',(110.546000287305,289.036748398384,45.2987168659067));
#247=CARTESIAN_POINT('Ctrl Pts',(110.644052459991,288.984460968251,45.5886585971941));
#248=CARTESIAN_POINT('Ctrl Pts',(110.715794346708,288.946061607087,45.7248177942854));
#249=CARTESIAN_POINT('Ctrl Pts',(111.046655780324,288.767357267004,46.2254513371974));
#250=CARTESIAN_POINT('Ctrl Pts',(111.465197297338,288.536051504405,46.5497744030172));
#251=CARTESIAN_POINT('Ctrl Pts',(112.21458403699,288.094387003661,46.9914389037609));
#252=CARTESIAN_POINT('Ctrl Pts',(112.646718302727,287.827096116931,47.173692524587));
#253=CARTESIAN_POINT('Ctrl Pts',(113.49595560074,287.230237959981,47.4275177771872));
#254=CARTESIAN_POINT('Ctrl Pts',(113.9120594601,286.899637764639,47.5000006705523));
#255=CARTESIAN_POINT('Ctrl Pts',(114.261405893803,286.550291330937,47.5000006705523));
#256=CARTESIAN_POINT('Origin',(309.025049505714,96.2025281521894,45.0000006705523));
#257=CARTESIAN_POINT('',(307.257282552748,94.434761199223,45.0000006705523));
#258=CARTESIAN_POINT('Origin',(309.025049505714,96.2025281521894,45.0000006705523));
#259=CARTESIAN_POINT('',(271.90194349342,129.79010025855,45.0000006705523));
#260=CARTESIAN_POINT('',(307.257282552748,94.434761199223,45.0000006705523));
#261=CARTESIAN_POINT('Origin',(273.669710446387,131.557867211517,45.0000006705523));
#262=CARTESIAN_POINT('Origin',(273.669710446387,131.557867211517,45.0000006705523));
#263=CARTESIAN_POINT('',(270.841283279494,128.729440044624,45.0000006705523));
#264=CARTESIAN_POINT('Origin',(273.669710446387,131.557867211517,45.0000006705523));
#265=CARTESIAN_POINT('Origin',(107.499616867548,297.727960790356,45.0000006705523));
#266=CARTESIAN_POINT('',(104.671189700655,294.899533623463,45.0000006705523));
#267=CARTESIAN_POINT('Origin',(107.499616867548,297.727960790356,45.0000006705523));
#268=CARTESIAN_POINT('Origin',(210.030100139597,195.197477518306,45.0000006705523));
#269=CARTESIAN_POINT('',(207.201672972704,192.369050351413,45.0000006705523));
#270=CARTESIAN_POINT('',(207.201672972704,192.369050351413,45.0000006705523));
#271=CARTESIAN_POINT('Origin',(309.025049505714,96.2025281521894,45.0000006705523));
#272=UNCERTAINTY_MEASURE_WITH_UNIT(LENGTH_MEASURE(0.01),#276,
'DISTANCE_ACCURACY_VALUE',
'Maximum model space distance between geometric entities at asserted c
onnectivities');
#273=UNCERTAINTY_MEASURE_WITH_UNIT(LENGTH_MEASURE(0.01),#276,
'DISTANCE_ACCURACY_VALUE',
'Maximum model space distance between geometric entities at asserted c
onnectivities');
#274=(
GEOMETRIC_REPRESENTATION_CONTEXT(3)
GLOBAL_UNCERTAINTY_ASSIGNED_CONTEXT((#272))
GLOBAL_UNIT_ASSIGNED_CONTEXT((#276,#278,#279))
REPRESENTATION_CONTEXT('','3D')
);
#275=(
GEOMETRIC_REPRESENTATION_CONTEXT(3)
GLOBAL_UNCERTAINTY_ASSIGNED_CONTEXT((#273))
GLOBAL_UNIT_ASSIGNED_CONTEXT((#276,#278,#279))
REPRESENTATION_CONTEXT('','3D')
);
#276=(
LENGTH_UNIT()
NAMED_UNIT(*)
SI_UNIT(.MILLI.,.METRE.)
);
#277=(
LENGTH_UNIT()
NAMED_UNIT(*)
SI_UNIT($,.METRE.)
);
#278=(
NAMED_UNIT(*)
PLANE_ANGLE_UNIT()
SI_UNIT($,.RADIAN.)
);
#279=(
NAMED_UNIT(*)
SI_UNIT($,.STERADIAN.)
SOLID_ANGLE_UNIT()
);
#280=SHAPE_DEFINITION_REPRESENTATION(#281,#282);
#281=PRODUCT_DEFINITION_SHAPE('',$,#284);
#282=SHAPE_REPRESENTATION('',(#121),#274);
#283=PRODUCT_DEFINITION_CONTEXT('part definition',#288,'design');
#284=PRODUCT_DEFINITION('2026-06-25-14-33-47-991',
'_light.e08890fd-5a30-4811-817c-8fcfcb4fc64b',#285,#283);
#285=PRODUCT_DEFINITION_FORMATION('',$,#290);
#286=PRODUCT_RELATED_PRODUCT_CATEGORY(
'_light.e08890fd-5a30-4811-817c-8fcfcb4fc64b',
'_light.e08890fd-5a30-4811-817c-8fcfcb4fc64b',(#290));
#287=APPLICATION_PROTOCOL_DEFINITION('international standard',
'automotive_design',2009,#288);
#288=APPLICATION_CONTEXT(
'Core Data for Automotive Mechanical Design Process');
#289=PRODUCT_CONTEXT('part definition',#288,'mechanical');
#290=PRODUCT('2026-06-25-14-33-47-991',
'_light.e08890fd-5a30-4811-817c-8fcfcb4fc64b',$,(#289));
#291=PRESENTATION_STYLE_ASSIGNMENT((#292));
#292=SURFACE_STYLE_USAGE(.BOTH.,#293);
#293=SURFACE_SIDE_STYLE('',(#294));
#294=SURFACE_STYLE_FILL_AREA(#295);
#295=FILL_AREA_STYLE('Steel - Satin',(#296));
#296=FILL_AREA_STYLE_COLOUR('Steel - Satin',#297);
#297=COLOUR_RGB('Steel - Satin',0.627450980392157,0.627450980392157,0.627450980392157);
ENDSEC;
END-ISO-10303-21;
