ISO-10303-21;
HEADER;
/* Generated by software containing ST-Developer
 * from STEP Tools, Inc. (www.steptools.com) 
 */

FILE_DESCRIPTION(
/* description */ (''),
/* implementation_level */ '2;1');

FILE_NAME(
/* name */ 'shadowless_hook.step',
/* time_stamp */ '2026-09-12T19:34:19-06:00',
/* author */ (''),
/* organization */ (''),
/* preprocessor_version */ 'ST-DEVELOPER v20.1',
/* originating_system */ 'Autodesk Translation Framework v15.8.0.0',
/* authorisation */ '');

FILE_SCHEMA (('AUTOMOTIVE_DESIGN { 1 0 10303 214 3 1 1 }'));
ENDSEC;

DATA;
#10=MECHANICAL_DESIGN_GEOMETRIC_PRESENTATION_REPRESENTATION('',(#13),#793);
#11=SHAPE_REPRESENTATION_RELATIONSHIP('SRR','None',#800,#12);
#12=ADVANCED_BREP_SHAPE_REPRESENTATION('',(#14),#792);
#13=STYLED_ITEM('',(#809),#14);
#14=MANIFOLD_SOLID_BREP('Body167',#471);
#15=FACE_BOUND('',#76,.T.);
#16=FACE_BOUND('',#77,.T.);
#17=CYLINDRICAL_SURFACE('',#510,12.);
#18=CIRCLE('',#489,12.);
#19=CIRCLE('',#492,12.);
#20=CIRCLE('',#495,12.);
#21=CIRCLE('',#497,12.);
#22=CIRCLE('',#500,12.);
#23=CIRCLE('',#503,12.);
#24=CIRCLE('',#506,12.);
#25=CIRCLE('',#509,12.);
#26=CIRCLE('',#511,12.);
#27=CIRCLE('',#512,12.);
#28=CIRCLE('',#513,12.);
#29=CIRCLE('',#514,12.);
#30=CIRCLE('',#515,12.);
#31=CIRCLE('',#516,12.);
#32=FACE_OUTER_BOUND('',#58,.T.);
#33=FACE_OUTER_BOUND('',#59,.T.);
#34=FACE_OUTER_BOUND('',#60,.T.);
#35=FACE_OUTER_BOUND('',#61,.T.);
#36=FACE_OUTER_BOUND('',#62,.T.);
#37=FACE_OUTER_BOUND('',#63,.T.);
#38=FACE_OUTER_BOUND('',#64,.T.);
#39=FACE_OUTER_BOUND('',#65,.T.);
#40=FACE_OUTER_BOUND('',#66,.T.);
#41=FACE_OUTER_BOUND('',#67,.T.);
#42=FACE_OUTER_BOUND('',#68,.T.);
#43=FACE_OUTER_BOUND('',#69,.T.);
#44=FACE_OUTER_BOUND('',#70,.T.);
#45=FACE_OUTER_BOUND('',#71,.T.);
#46=FACE_OUTER_BOUND('',#72,.T.);
#47=FACE_OUTER_BOUND('',#73,.T.);
#48=FACE_OUTER_BOUND('',#74,.T.);
#49=FACE_OUTER_BOUND('',#75,.T.);
#50=FACE_OUTER_BOUND('',#78,.T.);
#51=FACE_OUTER_BOUND('',#79,.T.);
#52=FACE_OUTER_BOUND('',#80,.T.);
#53=FACE_OUTER_BOUND('',#81,.T.);
#54=FACE_OUTER_BOUND('',#82,.T.);
#55=FACE_OUTER_BOUND('',#83,.T.);
#56=FACE_OUTER_BOUND('',#84,.T.);
#57=FACE_OUTER_BOUND('',#85,.T.);
#58=EDGE_LOOP('',(#292,#293,#294,#295,#296,#297,#298,#299,#300,#301,#302,
#303));
#59=EDGE_LOOP('',(#304,#305,#306,#307));
#60=EDGE_LOOP('',(#308,#309,#310,#311));
#61=EDGE_LOOP('',(#312,#313,#314,#315));
#62=EDGE_LOOP('',(#316,#317,#318,#319,#320,#321,#322,#323));
#63=EDGE_LOOP('',(#324,#325,#326,#327));
#64=EDGE_LOOP('',(#328,#329,#330,#331));
#65=EDGE_LOOP('',(#332,#333,#334,#335));
#66=EDGE_LOOP('',(#336,#337,#338,#339));
#67=EDGE_LOOP('',(#340,#341,#342,#343));
#68=EDGE_LOOP('',(#344,#345,#346,#347));
#69=EDGE_LOOP('',(#348,#349,#350,#351));
#70=EDGE_LOOP('',(#352,#353,#354,#355));
#71=EDGE_LOOP('',(#356,#357,#358,#359));
#72=EDGE_LOOP('',(#360,#361,#362,#363));
#73=EDGE_LOOP('',(#364,#365,#366,#367));
#74=EDGE_LOOP('',(#368,#369,#370,#371));
#75=EDGE_LOOP('',(#372,#373,#374,#375,#376,#377,#378,#379,#380,#381,#382,
#383,#384,#385,#386,#387,#388,#389,#390,#391,#392,#393));
#76=EDGE_LOOP('',(#394,#395,#396,#397));
#77=EDGE_LOOP('',(#398,#399,#400,#401));
#78=EDGE_LOOP('',(#402,#403));
#79=EDGE_LOOP('',(#404,#405));
#80=EDGE_LOOP('',(#406,#407,#408,#409));
#81=EDGE_LOOP('',(#410,#411));
#82=EDGE_LOOP('',(#412,#413));
#83=EDGE_LOOP('',(#414,#415,#416,#417));
#84=EDGE_LOOP('',(#418));
#85=EDGE_LOOP('',(#419));
#86=LINE('',#661,#136);
#87=LINE('',#663,#137);
#88=LINE('',#665,#138);
#89=LINE('',#667,#139);
#90=LINE('',#669,#140);
#91=LINE('',#671,#141);
#92=LINE('',#673,#142);
#93=LINE('',#675,#143);
#94=LINE('',#677,#144);
#95=LINE('',#679,#145);
#96=LINE('',#681,#146);
#97=LINE('',#682,#147);
#98=LINE('',#686,#148);
#99=LINE('',#688,#149);
#100=LINE('',#690,#150);
#101=LINE('',#691,#151);
#102=LINE('',#694,#152);
#103=LINE('',#696,#153);
#104=LINE('',#697,#154);
#105=LINE('',#700,#155);
#106=LINE('',#704,#156);
#107=LINE('',#705,#157);
#108=LINE('',#707,#158);
#109=LINE('',#709,#159);
#110=LINE('',#710,#160);
#111=LINE('',#713,#161);
#112=LINE('',#717,#162);
#113=LINE('',#718,#163);
#114=LINE('',#723,#164);
#115=LINE('',#727,#165);
#116=LINE('',#729,#166);
#117=LINE('',#730,#167);
#118=LINE('',#733,#168);
#119=LINE('',#737,#169);
#120=LINE('',#738,#170);
#121=LINE('',#743,#171);
#122=LINE('',#745,#172);
#123=LINE('',#746,#173);
#124=LINE('',#751,#174);
#125=LINE('',#752,#175);
#126=LINE('',#758,#176);
#127=LINE('',#760,#177);
#128=LINE('',#766,#178);
#129=LINE('',#769,#179);
#130=LINE('',#774,#180);
#131=LINE('',#777,#181);
#132=LINE('',#779,#182);
#133=LINE('',#781,#183);
#134=LINE('',#784,#184);
#135=LINE('',#786,#185);
#136=VECTOR('',#529,10.);
#137=VECTOR('',#530,10.);
#138=VECTOR('',#531,10.);
#139=VECTOR('',#532,10.);
#140=VECTOR('',#533,10.);
#141=VECTOR('',#534,10.);
#142=VECTOR('',#535,10.);
#143=VECTOR('',#536,10.);
#144=VECTOR('',#537,10.);
#145=VECTOR('',#538,10.);
#146=VECTOR('',#539,10.);
#147=VECTOR('',#540,10.);
#148=VECTOR('',#543,10.);
#149=VECTOR('',#544,10.);
#150=VECTOR('',#545,10.);
#151=VECTOR('',#546,10.);
#152=VECTOR('',#549,10.);
#153=VECTOR('',#550,10.);
#154=VECTOR('',#551,10.);
#155=VECTOR('',#554,10.);
#156=VECTOR('',#559,10.);
#157=VECTOR('',#560,10.);
#158=VECTOR('',#561,10.);
#159=VECTOR('',#562,10.);
#160=VECTOR('',#563,10.);
#161=VECTOR('',#566,10.);
#162=VECTOR('',#571,10.);
#163=VECTOR('',#572,10.);
#164=VECTOR('',#579,10.);
#165=VECTOR('',#584,10.);
#166=VECTOR('',#585,10.);
#167=VECTOR('',#586,10.);
#168=VECTOR('',#589,10.);
#169=VECTOR('',#594,10.);
#170=VECTOR('',#595,10.);
#171=VECTOR('',#602,10.);
#172=VECTOR('',#603,10.);
#173=VECTOR('',#604,10.);
#174=VECTOR('',#611,10.);
#175=VECTOR('',#612,10.);
#176=VECTOR('',#621,12.);
#177=VECTOR('',#622,12.);
#178=VECTOR('',#627,10.);
#179=VECTOR('',#630,10.);
#180=VECTOR('',#633,10.);
#181=VECTOR('',#636,10.);
#182=VECTOR('',#639,10.);
#183=VECTOR('',#642,10.);
#184=VECTOR('',#647,10.);
#185=VECTOR('',#650,10.);
#186=VERTEX_POINT('',#659);
#187=VERTEX_POINT('',#660);
#188=VERTEX_POINT('',#662);
#189=VERTEX_POINT('',#664);
#190=VERTEX_POINT('',#666);
#191=VERTEX_POINT('',#668);
#192=VERTEX_POINT('',#670);
#193=VERTEX_POINT('',#672);
#194=VERTEX_POINT('',#674);
#195=VERTEX_POINT('',#676);
#196=VERTEX_POINT('',#678);
#197=VERTEX_POINT('',#680);
#198=VERTEX_POINT('',#684);
#199=VERTEX_POINT('',#685);
#200=VERTEX_POINT('',#687);
#201=VERTEX_POINT('',#689);
#202=VERTEX_POINT('',#693);
#203=VERTEX_POINT('',#695);
#204=VERTEX_POINT('',#699);
#205=VERTEX_POINT('',#703);
#206=VERTEX_POINT('',#706);
#207=VERTEX_POINT('',#708);
#208=VERTEX_POINT('',#712);
#209=VERTEX_POINT('',#716);
#210=VERTEX_POINT('',#722);
#211=VERTEX_POINT('',#726);
#212=VERTEX_POINT('',#728);
#213=VERTEX_POINT('',#732);
#214=VERTEX_POINT('',#736);
#215=VERTEX_POINT('',#742);
#216=VERTEX_POINT('',#744);
#217=VERTEX_POINT('',#750);
#218=VERTEX_POINT('',#756);
#219=VERTEX_POINT('',#759);
#220=VERTEX_POINT('',#762);
#221=VERTEX_POINT('',#763);
#222=VERTEX_POINT('',#765);
#223=VERTEX_POINT('',#767);
#224=VERTEX_POINT('',#770);
#225=VERTEX_POINT('',#771);
#226=VERTEX_POINT('',#773);
#227=VERTEX_POINT('',#775);
#228=EDGE_CURVE('',#186,#187,#86,.T.);
#229=EDGE_CURVE('',#188,#186,#87,.T.);
#230=EDGE_CURVE('',#189,#188,#88,.T.);
#231=EDGE_CURVE('',#190,#189,#89,.T.);
#232=EDGE_CURVE('',#191,#190,#90,.T.);
#233=EDGE_CURVE('',#192,#191,#91,.T.);
#234=EDGE_CURVE('',#193,#192,#92,.T.);
#235=EDGE_CURVE('',#194,#193,#93,.T.);
#236=EDGE_CURVE('',#195,#194,#94,.T.);
#237=EDGE_CURVE('',#196,#195,#95,.T.);
#238=EDGE_CURVE('',#197,#196,#96,.T.);
#239=EDGE_CURVE('',#197,#187,#97,.T.);
#240=EDGE_CURVE('',#198,#199,#98,.T.);
#241=EDGE_CURVE('',#199,#200,#99,.T.);
#242=EDGE_CURVE('',#200,#201,#100,.T.);
#243=EDGE_CURVE('',#201,#198,#101,.T.);
#244=EDGE_CURVE('',#186,#202,#102,.T.);
#245=EDGE_CURVE('',#203,#202,#103,.T.);
#246=EDGE_CURVE('',#188,#203,#104,.T.);
#247=EDGE_CURVE('',#204,#187,#105,.T.);
#248=EDGE_CURVE('',#202,#204,#18,.T.);
#249=EDGE_CURVE('',#205,#198,#106,.T.);
#250=EDGE_CURVE('',#204,#205,#107,.T.);
#251=EDGE_CURVE('',#197,#206,#108,.T.);
#252=EDGE_CURVE('',#207,#206,#109,.T.);
#253=EDGE_CURVE('',#207,#199,#110,.T.);
#254=EDGE_CURVE('',#208,#201,#111,.T.);
#255=EDGE_CURVE('',#205,#208,#19,.T.);
#256=EDGE_CURVE('',#209,#200,#112,.T.);
#257=EDGE_CURVE('',#208,#209,#113,.T.);
#258=EDGE_CURVE('',#209,#207,#20,.T.);
#259=EDGE_CURVE('',#196,#210,#114,.T.);
#260=EDGE_CURVE('',#206,#210,#21,.T.);
#261=EDGE_CURVE('',#191,#211,#115,.T.);
#262=EDGE_CURVE('',#212,#211,#116,.T.);
#263=EDGE_CURVE('',#192,#212,#117,.T.);
#264=EDGE_CURVE('',#190,#213,#118,.T.);
#265=EDGE_CURVE('',#211,#213,#22,.T.);
#266=EDGE_CURVE('',#189,#214,#119,.T.);
#267=EDGE_CURVE('',#213,#214,#120,.T.);
#268=EDGE_CURVE('',#214,#203,#23,.T.);
#269=EDGE_CURVE('',#193,#215,#121,.T.);
#270=EDGE_CURVE('',#216,#215,#122,.T.);
#271=EDGE_CURVE('',#194,#216,#123,.T.);
#272=EDGE_CURVE('',#215,#212,#24,.T.);
#273=EDGE_CURVE('',#195,#217,#124,.T.);
#274=EDGE_CURVE('',#210,#217,#125,.T.);
#275=EDGE_CURVE('',#217,#216,#25,.T.);
#276=EDGE_CURVE('',#218,#218,#26,.T.);
#277=EDGE_CURVE('',#218,#207,#126,.T.);
#278=EDGE_CURVE('',#205,#219,#127,.T.);
#279=EDGE_CURVE('',#219,#219,#27,.T.);
#280=EDGE_CURVE('',#220,#221,#28,.T.);
#281=EDGE_CURVE('',#221,#222,#128,.T.);
#282=EDGE_CURVE('',#222,#223,#29,.T.);
#283=EDGE_CURVE('',#223,#220,#129,.T.);
#284=EDGE_CURVE('',#224,#225,#30,.T.);
#285=EDGE_CURVE('',#225,#226,#130,.T.);
#286=EDGE_CURVE('',#226,#227,#31,.T.);
#287=EDGE_CURVE('',#227,#224,#131,.T.);
#288=EDGE_CURVE('',#226,#227,#132,.T.);
#289=EDGE_CURVE('',#224,#225,#133,.T.);
#290=EDGE_CURVE('',#222,#223,#134,.T.);
#291=EDGE_CURVE('',#220,#221,#135,.T.);
#292=ORIENTED_EDGE('',*,*,#228,.F.);
#293=ORIENTED_EDGE('',*,*,#229,.F.);
#294=ORIENTED_EDGE('',*,*,#230,.F.);
#295=ORIENTED_EDGE('',*,*,#231,.F.);
#296=ORIENTED_EDGE('',*,*,#232,.F.);
#297=ORIENTED_EDGE('',*,*,#233,.F.);
#298=ORIENTED_EDGE('',*,*,#234,.F.);
#299=ORIENTED_EDGE('',*,*,#235,.F.);
#300=ORIENTED_EDGE('',*,*,#236,.F.);
#301=ORIENTED_EDGE('',*,*,#237,.F.);
#302=ORIENTED_EDGE('',*,*,#238,.F.);
#303=ORIENTED_EDGE('',*,*,#239,.T.);
#304=ORIENTED_EDGE('',*,*,#240,.T.);
#305=ORIENTED_EDGE('',*,*,#241,.T.);
#306=ORIENTED_EDGE('',*,*,#242,.T.);
#307=ORIENTED_EDGE('',*,*,#243,.T.);
#308=ORIENTED_EDGE('',*,*,#229,.T.);
#309=ORIENTED_EDGE('',*,*,#244,.T.);
#310=ORIENTED_EDGE('',*,*,#245,.F.);
#311=ORIENTED_EDGE('',*,*,#246,.F.);
#312=ORIENTED_EDGE('',*,*,#228,.T.);
#313=ORIENTED_EDGE('',*,*,#247,.F.);
#314=ORIENTED_EDGE('',*,*,#248,.F.);
#315=ORIENTED_EDGE('',*,*,#244,.F.);
#316=ORIENTED_EDGE('',*,*,#249,.F.);
#317=ORIENTED_EDGE('',*,*,#250,.F.);
#318=ORIENTED_EDGE('',*,*,#247,.T.);
#319=ORIENTED_EDGE('',*,*,#239,.F.);
#320=ORIENTED_EDGE('',*,*,#251,.T.);
#321=ORIENTED_EDGE('',*,*,#252,.F.);
#322=ORIENTED_EDGE('',*,*,#253,.T.);
#323=ORIENTED_EDGE('',*,*,#240,.F.);
#324=ORIENTED_EDGE('',*,*,#254,.F.);
#325=ORIENTED_EDGE('',*,*,#255,.F.);
#326=ORIENTED_EDGE('',*,*,#249,.T.);
#327=ORIENTED_EDGE('',*,*,#243,.F.);
#328=ORIENTED_EDGE('',*,*,#256,.F.);
#329=ORIENTED_EDGE('',*,*,#257,.F.);
#330=ORIENTED_EDGE('',*,*,#254,.T.);
#331=ORIENTED_EDGE('',*,*,#242,.F.);
#332=ORIENTED_EDGE('',*,*,#253,.F.);
#333=ORIENTED_EDGE('',*,*,#258,.F.);
#334=ORIENTED_EDGE('',*,*,#256,.T.);
#335=ORIENTED_EDGE('',*,*,#241,.F.);
#336=ORIENTED_EDGE('',*,*,#238,.T.);
#337=ORIENTED_EDGE('',*,*,#259,.T.);
#338=ORIENTED_EDGE('',*,*,#260,.F.);
#339=ORIENTED_EDGE('',*,*,#251,.F.);
#340=ORIENTED_EDGE('',*,*,#233,.T.);
#341=ORIENTED_EDGE('',*,*,#261,.T.);
#342=ORIENTED_EDGE('',*,*,#262,.F.);
#343=ORIENTED_EDGE('',*,*,#263,.F.);
#344=ORIENTED_EDGE('',*,*,#232,.T.);
#345=ORIENTED_EDGE('',*,*,#264,.T.);
#346=ORIENTED_EDGE('',*,*,#265,.F.);
#347=ORIENTED_EDGE('',*,*,#261,.F.);
#348=ORIENTED_EDGE('',*,*,#231,.T.);
#349=ORIENTED_EDGE('',*,*,#266,.T.);
#350=ORIENTED_EDGE('',*,*,#267,.F.);
#351=ORIENTED_EDGE('',*,*,#264,.F.);
#352=ORIENTED_EDGE('',*,*,#230,.T.);
#353=ORIENTED_EDGE('',*,*,#246,.T.);
#354=ORIENTED_EDGE('',*,*,#268,.F.);
#355=ORIENTED_EDGE('',*,*,#266,.F.);
#356=ORIENTED_EDGE('',*,*,#235,.T.);
#357=ORIENTED_EDGE('',*,*,#269,.T.);
#358=ORIENTED_EDGE('',*,*,#270,.F.);
#359=ORIENTED_EDGE('',*,*,#271,.F.);
#360=ORIENTED_EDGE('',*,*,#234,.T.);
#361=ORIENTED_EDGE('',*,*,#263,.T.);
#362=ORIENTED_EDGE('',*,*,#272,.F.);
#363=ORIENTED_EDGE('',*,*,#269,.F.);
#364=ORIENTED_EDGE('',*,*,#237,.T.);
#365=ORIENTED_EDGE('',*,*,#273,.T.);
#366=ORIENTED_EDGE('',*,*,#274,.F.);
#367=ORIENTED_EDGE('',*,*,#259,.F.);
#368=ORIENTED_EDGE('',*,*,#236,.T.);
#369=ORIENTED_EDGE('',*,*,#271,.T.);
#370=ORIENTED_EDGE('',*,*,#275,.F.);
#371=ORIENTED_EDGE('',*,*,#273,.F.);
#372=ORIENTED_EDGE('',*,*,#276,.F.);
#373=ORIENTED_EDGE('',*,*,#277,.T.);
#374=ORIENTED_EDGE('',*,*,#252,.T.);
#375=ORIENTED_EDGE('',*,*,#260,.T.);
#376=ORIENTED_EDGE('',*,*,#274,.T.);
#377=ORIENTED_EDGE('',*,*,#275,.T.);
#378=ORIENTED_EDGE('',*,*,#270,.T.);
#379=ORIENTED_EDGE('',*,*,#272,.T.);
#380=ORIENTED_EDGE('',*,*,#262,.T.);
#381=ORIENTED_EDGE('',*,*,#265,.T.);
#382=ORIENTED_EDGE('',*,*,#267,.T.);
#383=ORIENTED_EDGE('',*,*,#268,.T.);
#384=ORIENTED_EDGE('',*,*,#245,.T.);
#385=ORIENTED_EDGE('',*,*,#248,.T.);
#386=ORIENTED_EDGE('',*,*,#250,.T.);
#387=ORIENTED_EDGE('',*,*,#278,.T.);
#388=ORIENTED_EDGE('',*,*,#279,.F.);
#389=ORIENTED_EDGE('',*,*,#278,.F.);
#390=ORIENTED_EDGE('',*,*,#255,.T.);
#391=ORIENTED_EDGE('',*,*,#257,.T.);
#392=ORIENTED_EDGE('',*,*,#258,.T.);
#393=ORIENTED_EDGE('',*,*,#277,.F.);
#394=ORIENTED_EDGE('',*,*,#280,.T.);
#395=ORIENTED_EDGE('',*,*,#281,.T.);
#396=ORIENTED_EDGE('',*,*,#282,.T.);
#397=ORIENTED_EDGE('',*,*,#283,.T.);
#398=ORIENTED_EDGE('',*,*,#284,.T.);
#399=ORIENTED_EDGE('',*,*,#285,.T.);
#400=ORIENTED_EDGE('',*,*,#286,.T.);
#401=ORIENTED_EDGE('',*,*,#287,.T.);
#402=ORIENTED_EDGE('',*,*,#286,.F.);
#403=ORIENTED_EDGE('',*,*,#288,.T.);
#404=ORIENTED_EDGE('',*,*,#284,.F.);
#405=ORIENTED_EDGE('',*,*,#289,.T.);
#406=ORIENTED_EDGE('',*,*,#285,.F.);
#407=ORIENTED_EDGE('',*,*,#289,.F.);
#408=ORIENTED_EDGE('',*,*,#287,.F.);
#409=ORIENTED_EDGE('',*,*,#288,.F.);
#410=ORIENTED_EDGE('',*,*,#282,.F.);
#411=ORIENTED_EDGE('',*,*,#290,.T.);
#412=ORIENTED_EDGE('',*,*,#280,.F.);
#413=ORIENTED_EDGE('',*,*,#291,.T.);
#414=ORIENTED_EDGE('',*,*,#281,.F.);
#415=ORIENTED_EDGE('',*,*,#291,.F.);
#416=ORIENTED_EDGE('',*,*,#283,.F.);
#417=ORIENTED_EDGE('',*,*,#290,.F.);
#418=ORIENTED_EDGE('',*,*,#279,.T.);
#419=ORIENTED_EDGE('',*,*,#276,.T.);
#420=PLANE('',#485);
#421=PLANE('',#486);
#422=PLANE('',#487);
#423=PLANE('',#488);
#424=PLANE('',#490);
#425=PLANE('',#491);
#426=PLANE('',#493);
#427=PLANE('',#494);
#428=PLANE('',#496);
#429=PLANE('',#498);
#430=PLANE('',#499);
#431=PLANE('',#501);
#432=PLANE('',#502);
#433=PLANE('',#504);
#434=PLANE('',#505);
#435=PLANE('',#507);
#436=PLANE('',#508);
#437=PLANE('',#517);
#438=PLANE('',#518);
#439=PLANE('',#519);
#440=PLANE('',#520);
#441=PLANE('',#521);
#442=PLANE('',#522);
#443=PLANE('',#523);
#444=PLANE('',#524);
#445=ADVANCED_FACE('',(#32),#420,.F.);
#446=ADVANCED_FACE('',(#33),#421,.T.);
#447=ADVANCED_FACE('',(#34),#422,.F.);
#448=ADVANCED_FACE('',(#35),#423,.F.);
#449=ADVANCED_FACE('',(#36),#424,.T.);
#450=ADVANCED_FACE('',(#37),#425,.T.);
#451=ADVANCED_FACE('',(#38),#426,.T.);
#452=ADVANCED_FACE('',(#39),#427,.T.);
#453=ADVANCED_FACE('',(#40),#428,.F.);
#454=ADVANCED_FACE('',(#41),#429,.F.);
#455=ADVANCED_FACE('',(#42),#430,.F.);
#456=ADVANCED_FACE('',(#43),#431,.F.);
#457=ADVANCED_FACE('',(#44),#432,.F.);
#458=ADVANCED_FACE('',(#45),#433,.F.);
#459=ADVANCED_FACE('',(#46),#434,.F.);
#460=ADVANCED_FACE('',(#47),#435,.F.);
#461=ADVANCED_FACE('',(#48),#436,.F.);
#462=ADVANCED_FACE('',(#49,#15,#16),#17,.T.);
#463=ADVANCED_FACE('',(#50),#437,.F.);
#464=ADVANCED_FACE('',(#51),#438,.F.);
#465=ADVANCED_FACE('',(#52),#439,.T.);
#466=ADVANCED_FACE('',(#53),#440,.F.);
#467=ADVANCED_FACE('',(#54),#441,.F.);
#468=ADVANCED_FACE('',(#55),#442,.F.);
#469=ADVANCED_FACE('',(#56),#443,.T.);
#470=ADVANCED_FACE('',(#57),#444,.F.);
#471=CLOSED_SHELL('',(#445,#446,#447,#448,#449,#450,#451,#452,#453,#454,
#455,#456,#457,#458,#459,#460,#461,#462,#463,#464,#465,#466,#467,#468,#469,
#470));
#472=DERIVED_UNIT_ELEMENT(#474,1.);
#473=DERIVED_UNIT_ELEMENT(#795,-3.);
#474=(
MASS_UNIT()
NAMED_UNIT(*)
SI_UNIT(.KILO.,.GRAM.)
);
#475=DERIVED_UNIT((#472,#473));
#476=MEASURE_REPRESENTATION_ITEM('density measure',
POSITIVE_RATIO_MEASURE(7850.),#475);
#477=PROPERTY_DEFINITION_REPRESENTATION(#482,#479);
#478=PROPERTY_DEFINITION_REPRESENTATION(#483,#480);
#479=REPRESENTATION('material name',(#481),#792);
#480=REPRESENTATION('density',(#476),#792);
#481=DESCRIPTIVE_REPRESENTATION_ITEM('Steel','Steel');
#482=PROPERTY_DEFINITION('material property','material name',#802);
#483=PROPERTY_DEFINITION('material property','density of part',#802);
#484=AXIS2_PLACEMENT_3D('',#657,#525,#526);
#485=AXIS2_PLACEMENT_3D('',#658,#527,#528);
#486=AXIS2_PLACEMENT_3D('',#683,#541,#542);
#487=AXIS2_PLACEMENT_3D('',#692,#547,#548);
#488=AXIS2_PLACEMENT_3D('',#698,#552,#553);
#489=AXIS2_PLACEMENT_3D('',#701,#555,#556);
#490=AXIS2_PLACEMENT_3D('',#702,#557,#558);
#491=AXIS2_PLACEMENT_3D('',#711,#564,#565);
#492=AXIS2_PLACEMENT_3D('',#714,#567,#568);
#493=AXIS2_PLACEMENT_3D('',#715,#569,#570);
#494=AXIS2_PLACEMENT_3D('',#719,#573,#574);
#495=AXIS2_PLACEMENT_3D('',#720,#575,#576);
#496=AXIS2_PLACEMENT_3D('',#721,#577,#578);
#497=AXIS2_PLACEMENT_3D('',#724,#580,#581);
#498=AXIS2_PLACEMENT_3D('',#725,#582,#583);
#499=AXIS2_PLACEMENT_3D('',#731,#587,#588);
#500=AXIS2_PLACEMENT_3D('',#734,#590,#591);
#501=AXIS2_PLACEMENT_3D('',#735,#592,#593);
#502=AXIS2_PLACEMENT_3D('',#739,#596,#597);
#503=AXIS2_PLACEMENT_3D('',#740,#598,#599);
#504=AXIS2_PLACEMENT_3D('',#741,#600,#601);
#505=AXIS2_PLACEMENT_3D('',#747,#605,#606);
#506=AXIS2_PLACEMENT_3D('',#748,#607,#608);
#507=AXIS2_PLACEMENT_3D('',#749,#609,#610);
#508=AXIS2_PLACEMENT_3D('',#753,#613,#614);
#509=AXIS2_PLACEMENT_3D('',#754,#615,#616);
#510=AXIS2_PLACEMENT_3D('',#755,#617,#618);
#511=AXIS2_PLACEMENT_3D('',#757,#619,#620);
#512=AXIS2_PLACEMENT_3D('',#761,#623,#624);
#513=AXIS2_PLACEMENT_3D('',#764,#625,#626);
#514=AXIS2_PLACEMENT_3D('',#768,#628,#629);
#515=AXIS2_PLACEMENT_3D('',#772,#631,#632);
#516=AXIS2_PLACEMENT_3D('',#776,#634,#635);
#517=AXIS2_PLACEMENT_3D('',#778,#637,#638);
#518=AXIS2_PLACEMENT_3D('',#780,#640,#641);
#519=AXIS2_PLACEMENT_3D('',#782,#643,#644);
#520=AXIS2_PLACEMENT_3D('',#783,#645,#646);
#521=AXIS2_PLACEMENT_3D('',#785,#648,#649);
#522=AXIS2_PLACEMENT_3D('',#787,#651,#652);
#523=AXIS2_PLACEMENT_3D('',#788,#653,#654);
#524=AXIS2_PLACEMENT_3D('',#789,#655,#656);
#525=DIRECTION('axis',(0.,0.,1.));
#526=DIRECTION('refdir',(1.,0.,0.));
#527=DIRECTION('center_axis',(0.,0.,1.));
#528=DIRECTION('ref_axis',(-1.,0.,0.));
#529=DIRECTION('',(0.,1.,-1.25716800484909E-16));
#530=DIRECTION('',(1.,0.,0.));
#531=DIRECTION('',(0.,1.,-1.25716800484909E-16));
#532=DIRECTION('',(-1.,0.,0.));
#533=DIRECTION('',(0.,1.,-1.25716800484909E-16));
#534=DIRECTION('',(1.,0.,0.));
#535=DIRECTION('',(0.,-1.,1.25716800484909E-16));
#536=DIRECTION('',(-1.,0.,0.));
#537=DIRECTION('',(0.,-1.,1.25716800484909E-16));
#538=DIRECTION('',(1.,0.,0.));
#539=DIRECTION('',(0.,-1.,1.25716800484909E-16));
#540=DIRECTION('',(1.,0.,0.));
#541=DIRECTION('center_axis',(0.,0.,1.));
#542=DIRECTION('ref_axis',(1.,0.,0.));
#543=DIRECTION('',(-1.,0.,0.));
#544=DIRECTION('',(0.,-1.,0.));
#545=DIRECTION('',(1.,0.,0.));
#546=DIRECTION('',(0.,1.,0.));
#547=DIRECTION('center_axis',(0.,-1.,0.));
#548=DIRECTION('ref_axis',(-1.,0.,0.));
#549=DIRECTION('',(0.,0.,-1.));
#550=DIRECTION('',(1.,0.,0.));
#551=DIRECTION('',(0.,0.,-1.));
#552=DIRECTION('center_axis',(1.,0.,0.));
#553=DIRECTION('ref_axis',(0.,-1.,0.));
#554=DIRECTION('',(0.,1.26882631385732E-16,1.));
#555=DIRECTION('center_axis',(1.,0.,0.));
#556=DIRECTION('ref_axis',(0.,-1.,1.22464679914735E-16));
#557=DIRECTION('center_axis',(0.,1.,-1.26882631385732E-16));
#558=DIRECTION('ref_axis',(-1.,0.,0.));
#559=DIRECTION('',(0.,0.,1.));
#560=DIRECTION('',(1.,0.,0.));
#561=DIRECTION('',(0.,-1.26882631385732E-16,-1.));
#562=DIRECTION('',(1.,0.,0.));
#563=DIRECTION('',(0.,0.,1.));
#564=DIRECTION('center_axis',(1.,0.,0.));
#565=DIRECTION('ref_axis',(0.,1.,-1.22464679914735E-16));
#566=DIRECTION('',(0.,0.,1.));
#567=DIRECTION('center_axis',(1.,0.,0.));
#568=DIRECTION('ref_axis',(0.,-1.,1.22464679914735E-16));
#569=DIRECTION('center_axis',(0.,-1.,1.26882631385732E-16));
#570=DIRECTION('ref_axis',(1.,0.,0.));
#571=DIRECTION('',(0.,0.,1.));
#572=DIRECTION('',(-1.,0.,0.));
#573=DIRECTION('center_axis',(-1.,0.,0.));
#574=DIRECTION('ref_axis',(0.,-1.,1.22464679914735E-16));
#575=DIRECTION('center_axis',(-1.,0.,0.));
#576=DIRECTION('ref_axis',(0.,-1.,1.22464679914735E-16));
#577=DIRECTION('center_axis',(-1.,0.,0.));
#578=DIRECTION('ref_axis',(0.,1.,0.));
#579=DIRECTION('',(0.,0.,-1.));
#580=DIRECTION('center_axis',(-1.,0.,0.));
#581=DIRECTION('ref_axis',(0.,-1.,1.22464679914735E-16));
#582=DIRECTION('center_axis',(0.,-1.,0.));
#583=DIRECTION('ref_axis',(-1.,0.,0.));
#584=DIRECTION('',(0.,0.,-1.));
#585=DIRECTION('',(1.,0.,0.));
#586=DIRECTION('',(0.,0.,-1.));
#587=DIRECTION('center_axis',(1.,0.,0.));
#588=DIRECTION('ref_axis',(0.,-1.,0.));
#589=DIRECTION('',(0.,0.,-1.));
#590=DIRECTION('center_axis',(1.,0.,0.));
#591=DIRECTION('ref_axis',(0.,-1.,1.22464679914735E-16));
#592=DIRECTION('center_axis',(0.,1.,0.));
#593=DIRECTION('ref_axis',(1.,0.,0.));
#594=DIRECTION('',(0.,0.,-1.));
#595=DIRECTION('',(-1.,0.,0.));
#596=DIRECTION('center_axis',(1.,0.,0.));
#597=DIRECTION('ref_axis',(0.,-1.,0.));
#598=DIRECTION('center_axis',(1.,0.,0.));
#599=DIRECTION('ref_axis',(0.,-1.,1.22464679914735E-16));
#600=DIRECTION('center_axis',(0.,1.,0.));
#601=DIRECTION('ref_axis',(1.,0.,0.));
#602=DIRECTION('',(0.,0.,-1.));
#603=DIRECTION('',(-1.,0.,0.));
#604=DIRECTION('',(0.,0.,-1.));
#605=DIRECTION('center_axis',(-1.,0.,0.));
#606=DIRECTION('ref_axis',(0.,1.,0.));
#607=DIRECTION('center_axis',(-1.,0.,0.));
#608=DIRECTION('ref_axis',(0.,-1.,1.22464679914735E-16));
#609=DIRECTION('center_axis',(0.,-1.,0.));
#610=DIRECTION('ref_axis',(-1.,0.,0.));
#611=DIRECTION('',(0.,0.,-1.));
#612=DIRECTION('',(1.,0.,0.));
#613=DIRECTION('center_axis',(-1.,0.,0.));
#614=DIRECTION('ref_axis',(0.,1.,0.));
#615=DIRECTION('center_axis',(-1.,0.,0.));
#616=DIRECTION('ref_axis',(0.,-1.,1.22464679914735E-16));
#617=DIRECTION('center_axis',(-1.,0.,0.));
#618=DIRECTION('ref_axis',(0.,-1.,1.22464679914735E-16));
#619=DIRECTION('center_axis',(-1.,0.,0.));
#620=DIRECTION('ref_axis',(0.,-1.,1.22464679914735E-16));
#621=DIRECTION('',(1.,0.,0.));
#622=DIRECTION('',(1.,0.,0.));
#623=DIRECTION('center_axis',(1.,0.,0.));
#624=DIRECTION('ref_axis',(0.,-1.,1.22464679914735E-16));
#625=DIRECTION('center_axis',(-1.,0.,0.));
#626=DIRECTION('ref_axis',(0.,-1.,1.22464679914735E-16));
#627=DIRECTION('',(1.,0.,0.));
#628=DIRECTION('center_axis',(1.,0.,0.));
#629=DIRECTION('ref_axis',(0.,-1.,1.22464679914735E-16));
#630=DIRECTION('',(-1.,0.,0.));
#631=DIRECTION('center_axis',(1.,0.,0.));
#632=DIRECTION('ref_axis',(0.,-1.,1.22464679914735E-16));
#633=DIRECTION('',(-1.,0.,0.));
#634=DIRECTION('center_axis',(-1.,0.,0.));
#635=DIRECTION('ref_axis',(0.,-1.,1.22464679914735E-16));
#636=DIRECTION('',(1.,0.,0.));
#637=DIRECTION('center_axis',(-1.,0.,0.));
#638=DIRECTION('ref_axis',(0.,-1.,0.));
#639=DIRECTION('',(0.,1.,0.));
#640=DIRECTION('center_axis',(1.,0.,0.));
#641=DIRECTION('ref_axis',(0.,1.,0.));
#642=DIRECTION('',(0.,-1.,0.));
#643=DIRECTION('center_axis',(0.,0.,1.));
#644=DIRECTION('ref_axis',(-1.,0.,0.));
#645=DIRECTION('center_axis',(1.,0.,0.));
#646=DIRECTION('ref_axis',(0.,-1.,0.));
#647=DIRECTION('',(0.,-1.,0.));
#648=DIRECTION('center_axis',(-1.,0.,0.));
#649=DIRECTION('ref_axis',(0.,1.,0.));
#650=DIRECTION('',(0.,1.,0.));
#651=DIRECTION('center_axis',(0.,0.,-1.));
#652=DIRECTION('ref_axis',(-1.,0.,0.));
#653=DIRECTION('center_axis',(1.,0.,0.));
#654=DIRECTION('ref_axis',(0.,-1.,1.22464679914735E-16));
#655=DIRECTION('center_axis',(1.,0.,0.));
#656=DIRECTION('ref_axis',(0.,-1.,1.22464679914735E-16));
#657=CARTESIAN_POINT('',(0.,0.,0.));
#658=CARTESIAN_POINT('Origin',(0.,-1.99840144432528E-14,188.091));
#659=CARTESIAN_POINT('',(22.5,5.0000000745058,188.091));
#660=CARTESIAN_POINT('',(22.5,12.,188.091));
#661=CARTESIAN_POINT('',(22.5,5.99999999999999,188.091));
#662=CARTESIAN_POINT('',(15.,5.0000000745058,188.091));
#663=CARTESIAN_POINT('',(11.25,5.00000007450581,188.091));
#664=CARTESIAN_POINT('',(15.,-2.38697950294409E-14,188.091));
#665=CARTESIAN_POINT('',(15.,2.5000000372529,188.091));
#666=CARTESIAN_POINT('',(22.5,-2.38697950294409E-14,188.091));
#667=CARTESIAN_POINT('',(7.5,-1.99840144432528E-14,188.091));
#668=CARTESIAN_POINT('',(22.5,-2.00000000000002,188.091));
#669=CARTESIAN_POINT('',(22.5,-9.43689570931383E-15,188.091));
#670=CARTESIAN_POINT('',(-22.5,-2.00000000000002,188.091));
#671=CARTESIAN_POINT('',(11.25,-2.00000000000002,188.091));
#672=CARTESIAN_POINT('',(-22.5,-2.38697950294409E-14,188.091));
#673=CARTESIAN_POINT('',(-22.5,-1.00000000000001,188.091));
#674=CARTESIAN_POINT('',(-15.,-2.38697950294409E-14,188.091));
#675=CARTESIAN_POINT('',(-11.25,-1.99840144432528E-14,188.091));
#676=CARTESIAN_POINT('',(-15.,4.99999999999998,188.091));
#677=CARTESIAN_POINT('',(-15.,-9.43689570931383E-15,188.091));
#678=CARTESIAN_POINT('',(-22.5000003352761,4.99999999999998,188.091));
#679=CARTESIAN_POINT('',(-7.5,4.99999999999998,188.091));
#680=CARTESIAN_POINT('',(-22.5000003352761,12.,188.091));
#681=CARTESIAN_POINT('',(-22.5000003352761,2.49999999999999,188.091));
#682=CARTESIAN_POINT('',(-25.,12.,188.091));
#683=CARTESIAN_POINT('Origin',(0.,-1.99840144432528E-14,193.091));
#684=CARTESIAN_POINT('',(25.,12.,193.091));
#685=CARTESIAN_POINT('',(-25.,12.,193.091));
#686=CARTESIAN_POINT('',(-25.,12.,193.091));
#687=CARTESIAN_POINT('',(-25.,-12.,193.091));
#688=CARTESIAN_POINT('',(-25.,-12.,193.091));
#689=CARTESIAN_POINT('',(25.,-12.,193.091));
#690=CARTESIAN_POINT('',(25.,-12.,193.091));
#691=CARTESIAN_POINT('',(25.,12.,193.091));
#692=CARTESIAN_POINT('Origin',(22.5,5.00000007450581,219.));
#693=CARTESIAN_POINT('',(22.5,5.00000007450581,138.091287919514));
#694=CARTESIAN_POINT('',(22.5,5.00000007450581,219.));
#695=CARTESIAN_POINT('',(15.,5.00000007450581,138.091287919514));
#696=CARTESIAN_POINT('',(100.000000745058,5.00000007450581,138.091287919514));
#697=CARTESIAN_POINT('',(15.,5.00000007450581,219.));
#698=CARTESIAN_POINT('Origin',(22.5,12.,219.));
#699=CARTESIAN_POINT('',(22.5,12.,149.));
#700=CARTESIAN_POINT('',(22.5,12.,184.));
#701=CARTESIAN_POINT('Origin',(22.5,-2.64697796016969E-22,149.));
#702=CARTESIAN_POINT('Origin',(25.,12.,149.));
#703=CARTESIAN_POINT('',(25.,12.,149.));
#704=CARTESIAN_POINT('',(25.,12.,188.091));
#705=CARTESIAN_POINT('',(100.000000745058,12.,149.));
#706=CARTESIAN_POINT('',(-22.5000003352761,12.,149.));
#707=CARTESIAN_POINT('',(-22.5000003352761,12.,184.));
#708=CARTESIAN_POINT('',(-25.,12.,149.));
#709=CARTESIAN_POINT('',(100.000000745058,12.,149.));
#710=CARTESIAN_POINT('',(-25.,12.,188.091));
#711=CARTESIAN_POINT('Origin',(25.,-12.,149.));
#712=CARTESIAN_POINT('',(25.,-12.,149.));
#713=CARTESIAN_POINT('',(25.,-12.,188.091));
#714=CARTESIAN_POINT('Origin',(25.,-2.64697796016969E-22,149.));
#715=CARTESIAN_POINT('Origin',(-25.,-12.,149.));
#716=CARTESIAN_POINT('',(-25.,-12.,149.));
#717=CARTESIAN_POINT('',(-25.,-12.,188.091));
#718=CARTESIAN_POINT('',(100.000000745058,-12.,149.));
#719=CARTESIAN_POINT('Origin',(-25.,12.,149.));
#720=CARTESIAN_POINT('Origin',(-25.,-2.64697796016969E-22,149.));
#721=CARTESIAN_POINT('Origin',(-22.5000003352761,4.99999999999998,219.));
#722=CARTESIAN_POINT('',(-22.5000003352761,4.99999999999998,138.091287885364));
#723=CARTESIAN_POINT('',(-22.5000003352761,4.99999999999998,219.));
#724=CARTESIAN_POINT('Origin',(-22.5000003352761,-2.64697796016969E-22,
149.));
#725=CARTESIAN_POINT('Origin',(22.5,-2.00000000000002,219.));
#726=CARTESIAN_POINT('',(22.5,-2.00000000000002,137.167840433801));
#727=CARTESIAN_POINT('',(22.5,-2.00000000000002,219.));
#728=CARTESIAN_POINT('',(-22.5,-2.00000000000002,137.167840433801));
#729=CARTESIAN_POINT('',(100.000000745058,-2.00000000000002,137.167840433801));
#730=CARTESIAN_POINT('',(-22.5,-2.00000000000002,219.));
#731=CARTESIAN_POINT('Origin',(22.5,-1.99840144432528E-14,219.));
#732=CARTESIAN_POINT('',(22.5,-1.99840144432528E-14,137.));
#733=CARTESIAN_POINT('',(22.5,-1.99840144432528E-14,219.));
#734=CARTESIAN_POINT('Origin',(22.5,-2.64697796016969E-22,149.));
#735=CARTESIAN_POINT('Origin',(15.,-1.99840144432528E-14,219.));
#736=CARTESIAN_POINT('',(15.,-1.99840144432528E-14,137.));
#737=CARTESIAN_POINT('',(15.,-1.99840144432528E-14,219.));
#738=CARTESIAN_POINT('',(100.000000745058,-1.99840144432528E-14,137.));
#739=CARTESIAN_POINT('Origin',(15.,5.00000007450581,219.));
#740=CARTESIAN_POINT('Origin',(15.,-2.64697796016969E-22,149.));
#741=CARTESIAN_POINT('Origin',(-22.5,-1.99840144432528E-14,219.));
#742=CARTESIAN_POINT('',(-22.5,-1.99840144432528E-14,137.));
#743=CARTESIAN_POINT('',(-22.5,-1.99840144432528E-14,219.));
#744=CARTESIAN_POINT('',(-15.,-1.99840144432528E-14,137.));
#745=CARTESIAN_POINT('',(100.000000745058,-1.99840144432528E-14,137.));
#746=CARTESIAN_POINT('',(-15.,-1.99840144432528E-14,219.));
#747=CARTESIAN_POINT('Origin',(-22.5,-2.00000000000002,219.));
#748=CARTESIAN_POINT('Origin',(-22.5,-2.64697796016969E-22,149.));
#749=CARTESIAN_POINT('Origin',(-15.,4.99999999999998,219.));
#750=CARTESIAN_POINT('',(-15.,4.99999999999998,138.091287885364));
#751=CARTESIAN_POINT('',(-15.,4.99999999999998,219.));
#752=CARTESIAN_POINT('',(100.000000745058,4.99999999999998,138.091287885364));
#753=CARTESIAN_POINT('Origin',(-15.,-1.99840144432528E-14,219.));
#754=CARTESIAN_POINT('Origin',(-15.,-2.64697796016969E-22,149.));
#755=CARTESIAN_POINT('Origin',(100.000000745058,-2.64697796016969E-22,149.));
#756=CARTESIAN_POINT('',(-119.999999254942,12.,149.));
#757=CARTESIAN_POINT('Origin',(-119.999999254942,-2.64697796016969E-22,
149.));
#758=CARTESIAN_POINT('',(100.000000745058,12.,149.));
#759=CARTESIAN_POINT('',(120.000000745058,12.,149.));
#760=CARTESIAN_POINT('',(100.000000745058,12.,149.));
#761=CARTESIAN_POINT('Origin',(120.000000745058,-2.64697796016969E-22,149.));
#762=CARTESIAN_POINT('',(-100.50000141561,-11.8321595661992,151.));
#763=CARTESIAN_POINT('',(-100.50000141561,11.8321595661992,151.));
#764=CARTESIAN_POINT('Origin',(-100.50000141561,-2.64697796016969E-22,149.));
#765=CARTESIAN_POINT('',(-89.5000014156103,11.8321595661992,151.));
#766=CARTESIAN_POINT('',(100.000000745058,11.8321595661992,151.));
#767=CARTESIAN_POINT('',(-89.5000014156103,-11.8321595661992,151.));
#768=CARTESIAN_POINT('Origin',(-89.5000014156103,-2.64697796016969E-22,
149.));
#769=CARTESIAN_POINT('',(100.000000745058,-11.8321595661992,151.));
#770=CARTESIAN_POINT('',(101.,11.8321595661992,151.));
#771=CARTESIAN_POINT('',(101.,-11.8321595661992,151.));
#772=CARTESIAN_POINT('Origin',(101.,-2.64697796016969E-22,149.));
#773=CARTESIAN_POINT('',(89.,-11.8321595661992,151.));
#774=CARTESIAN_POINT('',(100.000000745058,-11.8321595661992,151.));
#775=CARTESIAN_POINT('',(89.,11.8321595661992,151.));
#776=CARTESIAN_POINT('Origin',(89.,-2.64697796016969E-22,149.));
#777=CARTESIAN_POINT('',(100.000000745058,11.8321595661992,151.));
#778=CARTESIAN_POINT('Origin',(89.,32.0000004768372,151.));
#779=CARTESIAN_POINT('',(89.,-32.0000004768371,151.));
#780=CARTESIAN_POINT('Origin',(101.,-32.0000004768371,151.));
#781=CARTESIAN_POINT('',(101.,32.0000004768372,151.));
#782=CARTESIAN_POINT('Origin',(95.,8.88178419700125E-15,151.));
#783=CARTESIAN_POINT('Origin',(-89.5000014156103,28.7338324512142,161.));
#784=CARTESIAN_POINT('',(-89.5000014156103,28.7338324512142,151.));
#785=CARTESIAN_POINT('Origin',(-100.50000141561,-28.1805968491184,161.));
#786=CARTESIAN_POINT('',(-100.50000141561,-28.1805968491184,151.));
#787=CARTESIAN_POINT('Origin',(-95.0000014156103,0.276617801047898,151.));
#788=CARTESIAN_POINT('Origin',(120.000000745058,-3.97046694025453E-21,149.));
#789=CARTESIAN_POINT('Origin',(-119.999999254942,-3.97046694025453E-21,
149.));
#790=UNCERTAINTY_MEASURE_WITH_UNIT(LENGTH_MEASURE(0.01),#794,
'DISTANCE_ACCURACY_VALUE',
'Maximum model space distance between geometric entities at asserted c
onnectivities');
#791=UNCERTAINTY_MEASURE_WITH_UNIT(LENGTH_MEASURE(0.01),#794,
'DISTANCE_ACCURACY_VALUE',
'Maximum model space distance between geometric entities at asserted c
onnectivities');
#792=(
GEOMETRIC_REPRESENTATION_CONTEXT(3)
GLOBAL_UNCERTAINTY_ASSIGNED_CONTEXT((#790))
GLOBAL_UNIT_ASSIGNED_CONTEXT((#794,#796,#797))
REPRESENTATION_CONTEXT('','3D')
);
#793=(
GEOMETRIC_REPRESENTATION_CONTEXT(3)
GLOBAL_UNCERTAINTY_ASSIGNED_CONTEXT((#791))
GLOBAL_UNIT_ASSIGNED_CONTEXT((#794,#796,#797))
REPRESENTATION_CONTEXT('','3D')
);
#794=(
LENGTH_UNIT()
NAMED_UNIT(*)
SI_UNIT(.MILLI.,.METRE.)
);
#795=(
LENGTH_UNIT()
NAMED_UNIT(*)
SI_UNIT($,.METRE.)
);
#796=(
NAMED_UNIT(*)
PLANE_ANGLE_UNIT()
SI_UNIT($,.RADIAN.)
);
#797=(
NAMED_UNIT(*)
SI_UNIT($,.STERADIAN.)
SOLID_ANGLE_UNIT()
);
#798=SHAPE_DEFINITION_REPRESENTATION(#799,#800);
#799=PRODUCT_DEFINITION_SHAPE('',$,#802);
#800=SHAPE_REPRESENTATION('',(#484),#792);
#801=PRODUCT_DEFINITION_CONTEXT('part definition',#806,'design');
#802=PRODUCT_DEFINITION('2026-06-25-14-33-47-991',
'_light.e08890fd-5a30-4811-817c-8fcfcb4fc64b (~recovered)',#803,#801);
#803=PRODUCT_DEFINITION_FORMATION('',$,#808);
#804=PRODUCT_RELATED_PRODUCT_CATEGORY(
'_light.e08890fd-5a30-4811-817c-8fcfcb4fc64b (~recovered)',
'_light.e08890fd-5a30-4811-817c-8fcfcb4fc64b (~recovered)',(#808));
#805=APPLICATION_PROTOCOL_DEFINITION('international standard',
'automotive_design',2009,#806);
#806=APPLICATION_CONTEXT(
'Core Data for Automotive Mechanical Design Process');
#807=PRODUCT_CONTEXT('part definition',#806,'mechanical');
#808=PRODUCT('2026-06-25-14-33-47-991',
'_light.e08890fd-5a30-4811-817c-8fcfcb4fc64b (~recovered)',$,(#807));
#809=PRESENTATION_STYLE_ASSIGNMENT((#810));
#810=SURFACE_STYLE_USAGE(.BOTH.,#811);
#811=SURFACE_SIDE_STYLE('',(#812));
#812=SURFACE_STYLE_FILL_AREA(#813);
#813=FILL_AREA_STYLE('Steel - Satin',(#814));
#814=FILL_AREA_STYLE_COLOUR('Steel - Satin',#815);
#815=COLOUR_RGB('Steel - Satin',0.627450980392157,0.627450980392157,0.627450980392157);
ENDSEC;
END-ISO-10303-21;
