ISO-10303-21;
HEADER;
/* Generated by software containing ST-Developer
 * from STEP Tools, Inc. (www.steptools.com) 
 */

FILE_DESCRIPTION(
/* description */ (''),
/* implementation_level */ '2;1');

FILE_NAME(
/* name */ 'shadowless_pivot.step',
/* time_stamp */ '2026-09-12T19:37:11-06:00',
/* author */ (''),
/* organization */ (''),
/* preprocessor_version */ 'ST-DEVELOPER v20.1',
/* originating_system */ 'Autodesk Translation Framework v15.8.0.0',
/* authorisation */ '');

FILE_SCHEMA (('AUTOMOTIVE_DESIGN { 1 0 10303 214 3 1 1 }'));
ENDSEC;

DATA;
#10=MECHANICAL_DESIGN_GEOMETRIC_PRESENTATION_REPRESENTATION('',(#13),#368);
#11=SHAPE_REPRESENTATION_RELATIONSHIP('SRR','None',#375,#12);
#12=ADVANCED_BREP_SHAPE_REPRESENTATION('',(#14),#367);
#13=STYLED_ITEM('',(#384),#14);
#14=MANIFOLD_SOLID_BREP('Body102',#208);
#15=FACE_BOUND('',#52,.T.);
#16=CIRCLE('',#225,3.);
#17=CIRCLE('',#228,4.00000005960465);
#18=CIRCLE('',#229,4.00000005960465);
#19=CIRCLE('',#234,3.88125134274406);
#20=CIRCLE('',#238,2.75);
#21=ELLIPSE('',#224,3.24717660087718,3.);
#22=ELLIPSE('',#231,4.32956886568518,4.00000005960465);
#23=ELLIPSE('',#233,4.20103618076056,3.88125134274407);
#24=ELLIPSE('',#237,2.97657855080408,2.75);
#25=ELLIPSE('',#241,4.32956886568518,4.00000005960465);
#26=CYLINDRICAL_SURFACE('',#223,3.);
#27=CYLINDRICAL_SURFACE('',#232,3.88125134274406);
#28=CYLINDRICAL_SURFACE('',#236,2.75);
#29=CYLINDRICAL_SURFACE('',#242,4.00000005960465);
#30=FACE_OUTER_BOUND('',#42,.T.);
#31=FACE_OUTER_BOUND('',#43,.T.);
#32=FACE_OUTER_BOUND('',#44,.T.);
#33=FACE_OUTER_BOUND('',#45,.T.);
#34=FACE_OUTER_BOUND('',#46,.T.);
#35=FACE_OUTER_BOUND('',#47,.T.);
#36=FACE_OUTER_BOUND('',#48,.T.);
#37=FACE_OUTER_BOUND('',#49,.T.);
#38=FACE_OUTER_BOUND('',#50,.T.);
#39=FACE_OUTER_BOUND('',#51,.T.);
#40=FACE_OUTER_BOUND('',#53,.T.);
#41=FACE_OUTER_BOUND('',#54,.T.);
#42=EDGE_LOOP('',(#134,#135,#136,#137));
#43=EDGE_LOOP('',(#138,#139,#140,#141));
#44=EDGE_LOOP('',(#142,#143,#144,#145));
#45=EDGE_LOOP('',(#146,#147,#148,#149,#150));
#46=EDGE_LOOP('',(#151,#152,#153,#154));
#47=EDGE_LOOP('',(#155,#156,#157,#158));
#48=EDGE_LOOP('',(#159,#160,#161,#162));
#49=EDGE_LOOP('',(#163,#164,#165,#166));
#50=EDGE_LOOP('',(#167,#168,#169,#170));
#51=EDGE_LOOP('',(#171));
#52=EDGE_LOOP('',(#172,#173,#174,#175));
#53=EDGE_LOOP('',(#176,#177,#178,#179,#180,#181,#182,#183));
#54=EDGE_LOOP('',(#184,#185,#186,#187));
#55=LINE('',#311,#72);
#56=LINE('',#313,#73);
#57=LINE('',#315,#74);
#58=LINE('',#316,#75);
#59=LINE('',#322,#76);
#60=LINE('',#325,#77);
#61=LINE('',#327,#78);
#62=LINE('',#328,#79);
#63=LINE('',#340,#80);
#64=LINE('',#343,#81);
#65=LINE('',#346,#82);
#66=LINE('',#348,#83);
#67=LINE('',#349,#84);
#68=LINE('',#354,#85);
#69=LINE('',#357,#86);
#70=LINE('',#358,#87);
#71=LINE('',#363,#88);
#72=VECTOR('',#248,10.);
#73=VECTOR('',#249,10.);
#74=VECTOR('',#250,10.);
#75=VECTOR('',#251,10.);
#76=VECTOR('',#258,10.);
#77=VECTOR('',#261,10.);
#78=VECTOR('',#262,10.);
#79=VECTOR('',#263,10.);
#80=VECTOR('',#278,10.);
#81=VECTOR('',#281,10.);
#82=VECTOR('',#284,10.);
#83=VECTOR('',#285,10.);
#84=VECTOR('',#286,10.);
#85=VECTOR('',#291,10.);
#86=VECTOR('',#296,10.);
#87=VECTOR('',#297,10.);
#88=VECTOR('',#304,4.00000005960464);
#89=VERTEX_POINT('',#309);
#90=VERTEX_POINT('',#310);
#91=VERTEX_POINT('',#312);
#92=VERTEX_POINT('',#314);
#93=VERTEX_POINT('',#318);
#94=VERTEX_POINT('',#320);
#95=VERTEX_POINT('',#324);
#96=VERTEX_POINT('',#326);
#97=VERTEX_POINT('',#330);
#98=VERTEX_POINT('',#336);
#99=VERTEX_POINT('',#337);
#100=VERTEX_POINT('',#339);
#101=VERTEX_POINT('',#341);
#102=VERTEX_POINT('',#345);
#103=VERTEX_POINT('',#347);
#104=VERTEX_POINT('',#351);
#105=VERTEX_POINT('',#353);
#106=VERTEX_POINT('',#360);
#107=EDGE_CURVE('',#89,#90,#55,.T.);
#108=EDGE_CURVE('',#89,#91,#56,.T.);
#109=EDGE_CURVE('',#91,#92,#57,.T.);
#110=EDGE_CURVE('',#90,#92,#58,.T.);
#111=EDGE_CURVE('',#92,#93,#21,.T.);
#112=EDGE_CURVE('',#94,#91,#16,.T.);
#113=EDGE_CURVE('',#94,#93,#59,.T.);
#114=EDGE_CURVE('',#93,#95,#60,.T.);
#115=EDGE_CURVE('',#94,#96,#61,.T.);
#116=EDGE_CURVE('',#95,#96,#62,.T.);
#117=EDGE_CURVE('',#96,#97,#17,.T.);
#118=EDGE_CURVE('',#97,#89,#18,.T.);
#119=EDGE_CURVE('',#95,#90,#22,.T.);
#120=EDGE_CURVE('',#98,#99,#23,.T.);
#121=EDGE_CURVE('',#100,#98,#63,.T.);
#122=EDGE_CURVE('',#101,#100,#19,.T.);
#123=EDGE_CURVE('',#101,#99,#64,.T.);
#124=EDGE_CURVE('',#102,#98,#65,.T.);
#125=EDGE_CURVE('',#103,#102,#66,.T.);
#126=EDGE_CURVE('',#103,#100,#67,.T.);
#127=EDGE_CURVE('',#104,#102,#24,.T.);
#128=EDGE_CURVE('',#105,#104,#68,.T.);
#129=EDGE_CURVE('',#103,#105,#20,.T.);
#130=EDGE_CURVE('',#99,#104,#69,.T.);
#131=EDGE_CURVE('',#101,#105,#70,.T.);
#132=EDGE_CURVE('',#106,#106,#25,.F.);
#133=EDGE_CURVE('',#106,#97,#71,.T.);
#134=ORIENTED_EDGE('',*,*,#107,.F.);
#135=ORIENTED_EDGE('',*,*,#108,.T.);
#136=ORIENTED_EDGE('',*,*,#109,.T.);
#137=ORIENTED_EDGE('',*,*,#110,.F.);
#138=ORIENTED_EDGE('',*,*,#111,.F.);
#139=ORIENTED_EDGE('',*,*,#109,.F.);
#140=ORIENTED_EDGE('',*,*,#112,.F.);
#141=ORIENTED_EDGE('',*,*,#113,.T.);
#142=ORIENTED_EDGE('',*,*,#114,.F.);
#143=ORIENTED_EDGE('',*,*,#113,.F.);
#144=ORIENTED_EDGE('',*,*,#115,.T.);
#145=ORIENTED_EDGE('',*,*,#116,.F.);
#146=ORIENTED_EDGE('',*,*,#117,.F.);
#147=ORIENTED_EDGE('',*,*,#115,.F.);
#148=ORIENTED_EDGE('',*,*,#112,.T.);
#149=ORIENTED_EDGE('',*,*,#108,.F.);
#150=ORIENTED_EDGE('',*,*,#118,.F.);
#151=ORIENTED_EDGE('',*,*,#110,.T.);
#152=ORIENTED_EDGE('',*,*,#111,.T.);
#153=ORIENTED_EDGE('',*,*,#114,.T.);
#154=ORIENTED_EDGE('',*,*,#119,.T.);
#155=ORIENTED_EDGE('',*,*,#120,.F.);
#156=ORIENTED_EDGE('',*,*,#121,.F.);
#157=ORIENTED_EDGE('',*,*,#122,.F.);
#158=ORIENTED_EDGE('',*,*,#123,.T.);
#159=ORIENTED_EDGE('',*,*,#124,.F.);
#160=ORIENTED_EDGE('',*,*,#125,.F.);
#161=ORIENTED_EDGE('',*,*,#126,.T.);
#162=ORIENTED_EDGE('',*,*,#121,.T.);
#163=ORIENTED_EDGE('',*,*,#127,.F.);
#164=ORIENTED_EDGE('',*,*,#128,.F.);
#165=ORIENTED_EDGE('',*,*,#129,.F.);
#166=ORIENTED_EDGE('',*,*,#125,.T.);
#167=ORIENTED_EDGE('',*,*,#130,.F.);
#168=ORIENTED_EDGE('',*,*,#123,.F.);
#169=ORIENTED_EDGE('',*,*,#131,.T.);
#170=ORIENTED_EDGE('',*,*,#128,.T.);
#171=ORIENTED_EDGE('',*,*,#132,.T.);
#172=ORIENTED_EDGE('',*,*,#124,.T.);
#173=ORIENTED_EDGE('',*,*,#120,.T.);
#174=ORIENTED_EDGE('',*,*,#130,.T.);
#175=ORIENTED_EDGE('',*,*,#127,.T.);
#176=ORIENTED_EDGE('',*,*,#132,.F.);
#177=ORIENTED_EDGE('',*,*,#133,.T.);
#178=ORIENTED_EDGE('',*,*,#118,.T.);
#179=ORIENTED_EDGE('',*,*,#107,.T.);
#180=ORIENTED_EDGE('',*,*,#119,.F.);
#181=ORIENTED_EDGE('',*,*,#116,.T.);
#182=ORIENTED_EDGE('',*,*,#117,.T.);
#183=ORIENTED_EDGE('',*,*,#133,.F.);
#184=ORIENTED_EDGE('',*,*,#122,.T.);
#185=ORIENTED_EDGE('',*,*,#126,.F.);
#186=ORIENTED_EDGE('',*,*,#129,.T.);
#187=ORIENTED_EDGE('',*,*,#131,.F.);
#188=PLANE('',#222);
#189=PLANE('',#226);
#190=PLANE('',#227);
#191=PLANE('',#230);
#192=PLANE('',#235);
#193=PLANE('',#239);
#194=PLANE('',#240);
#195=PLANE('',#243);
#196=ADVANCED_FACE('',(#30),#188,.F.);
#197=ADVANCED_FACE('',(#31),#26,.F.);
#198=ADVANCED_FACE('',(#32),#189,.F.);
#199=ADVANCED_FACE('',(#33),#190,.T.);
#200=ADVANCED_FACE('',(#34),#191,.T.);
#201=ADVANCED_FACE('',(#35),#27,.T.);
#202=ADVANCED_FACE('',(#36),#192,.T.);
#203=ADVANCED_FACE('',(#37),#28,.T.);
#204=ADVANCED_FACE('',(#38),#193,.T.);
#205=ADVANCED_FACE('',(#39,#15),#194,.F.);
#206=ADVANCED_FACE('',(#40),#29,.T.);
#207=ADVANCED_FACE('',(#41),#195,.T.);
#208=CLOSED_SHELL('',(#196,#197,#198,#199,#200,#201,#202,#203,#204,#205,
#206,#207));
#209=DERIVED_UNIT_ELEMENT(#211,1.);
#210=DERIVED_UNIT_ELEMENT(#370,-3.);
#211=(
MASS_UNIT()
NAMED_UNIT(*)
SI_UNIT(.KILO.,.GRAM.)
);
#212=DERIVED_UNIT((#209,#210));
#213=MEASURE_REPRESENTATION_ITEM('density measure',
POSITIVE_RATIO_MEASURE(7850.),#212);
#214=PROPERTY_DEFINITION_REPRESENTATION(#219,#216);
#215=PROPERTY_DEFINITION_REPRESENTATION(#220,#217);
#216=REPRESENTATION('material name',(#218),#367);
#217=REPRESENTATION('density',(#213),#367);
#218=DESCRIPTIVE_REPRESENTATION_ITEM('Steel','Steel');
#219=PROPERTY_DEFINITION('material property','material name',#377);
#220=PROPERTY_DEFINITION('material property','density of part',#377);
#221=AXIS2_PLACEMENT_3D('',#307,#244,#245);
#222=AXIS2_PLACEMENT_3D('',#308,#246,#247);
#223=AXIS2_PLACEMENT_3D('',#317,#252,#253);
#224=AXIS2_PLACEMENT_3D('',#319,#254,#255);
#225=AXIS2_PLACEMENT_3D('',#321,#256,#257);
#226=AXIS2_PLACEMENT_3D('',#323,#259,#260);
#227=AXIS2_PLACEMENT_3D('',#329,#264,#265);
#228=AXIS2_PLACEMENT_3D('',#331,#266,#267);
#229=AXIS2_PLACEMENT_3D('',#332,#268,#269);
#230=AXIS2_PLACEMENT_3D('',#333,#270,#271);
#231=AXIS2_PLACEMENT_3D('',#334,#272,#273);
#232=AXIS2_PLACEMENT_3D('',#335,#274,#275);
#233=AXIS2_PLACEMENT_3D('',#338,#276,#277);
#234=AXIS2_PLACEMENT_3D('',#342,#279,#280);
#235=AXIS2_PLACEMENT_3D('',#344,#282,#283);
#236=AXIS2_PLACEMENT_3D('',#350,#287,#288);
#237=AXIS2_PLACEMENT_3D('',#352,#289,#290);
#238=AXIS2_PLACEMENT_3D('',#355,#292,#293);
#239=AXIS2_PLACEMENT_3D('',#356,#294,#295);
#240=AXIS2_PLACEMENT_3D('',#359,#298,#299);
#241=AXIS2_PLACEMENT_3D('',#361,#300,#301);
#242=AXIS2_PLACEMENT_3D('',#362,#302,#303);
#243=AXIS2_PLACEMENT_3D('',#364,#305,#306);
#244=DIRECTION('axis',(0.,0.,1.));
#245=DIRECTION('refdir',(1.,0.,0.));
#246=DIRECTION('center_axis',(1.05879118380485E-22,1.05879118395893E-22,
-1.));
#247=DIRECTION('ref_axis',(-0.707106781186548,-0.707106781186547,-1.49735685196684E-22));
#248=DIRECTION('',(-0.707106781186547,0.707106781186548,1.08947755170087E-32));
#249=DIRECTION('',(0.707106781186548,0.707106781186547,1.49735685196684E-22));
#250=DIRECTION('',(-0.707106781186547,0.707106781186548,1.08947755170087E-32));
#251=DIRECTION('',(0.38268343236509,0.923879532511287,1.38337734843939E-22));
#252=DIRECTION('center_axis',(-0.707106781186547,0.707106781186548,1.08947755170087E-32));
#253=DIRECTION('ref_axis',(0.707106781186548,0.707106781186547,1.15648231731787E-16));
#254=DIRECTION('center_axis',(0.923879532511287,-0.38268343236509,5.730136594854E-23));
#255=DIRECTION('ref_axis',(-0.38268343236509,-0.923879532511287,-6.41071588986071E-17));
#256=DIRECTION('center_axis',(-0.707106781186547,0.707106781186548,1.08947755170087E-32));
#257=DIRECTION('ref_axis',(-0.697216701097179,-0.697216701097179,0.166666563600302));
#258=DIRECTION('',(-0.707106781186547,0.707106781186548,1.08947755170087E-32));
#259=DIRECTION('center_axis',(-1.05879118380485E-22,-1.05879118395893E-22,
1.));
#260=DIRECTION('ref_axis',(0.707106781186548,0.707106781186547,1.49735685196684E-22));
#261=DIRECTION('',(-0.38268343236509,-0.923879532511287,-1.38337734843939E-22));
#262=DIRECTION('',(-0.707106781186548,-0.707106781186547,-1.49735685196684E-22));
#263=DIRECTION('',(0.707106781186547,-0.707106781186548,-1.08947755170087E-32));
#264=DIRECTION('center_axis',(-0.707106781186547,0.707106781186548,1.08947755170087E-32));
#265=DIRECTION('ref_axis',(-0.707106781186548,-0.707106781186547,-1.49735685196684E-22));
#266=DIRECTION('center_axis',(0.707106781186547,-0.707106781186548,-1.08947755170087E-32));
#267=DIRECTION('ref_axis',(0.707106781186548,0.707106781186547,-1.2246453017905E-16));
#268=DIRECTION('center_axis',(0.707106781186547,-0.707106781186548,-1.08947755170087E-32));
#269=DIRECTION('ref_axis',(0.707106781186548,0.707106781186547,-1.2246453017905E-16));
#270=DIRECTION('center_axis',(-0.923879532511287,0.38268343236509,-5.730136594854E-23));
#271=DIRECTION('ref_axis',(0.38268343236509,0.923879532511287,-1.22464541577001E-16));
#272=DIRECTION('center_axis',(-0.923879532511287,0.38268343236509,-5.730136594854E-23));
#273=DIRECTION('ref_axis',(0.38268343236509,0.923879532511287,-1.13142472891035E-16));
#274=DIRECTION('center_axis',(-0.000400463567708564,0.999834122559019,0.0182089811787479));
#275=DIRECTION('ref_axis',(-0.999999919787867,-0.000400529974474164,9.93988428304104E-16));
#276=DIRECTION('center_axis',(-0.38268343236509,0.923879532511287,5.73013659686709E-23));
#277=DIRECTION('ref_axis',(0.922833070778586,0.3822499737229,0.0475823608725661));
#278=DIRECTION('',(-0.000400463567708564,0.999834122559019,0.0182089811787479));
#279=DIRECTION('center_axis',(0.000400463567708564,-0.999834122559019,-0.0182089811787479));
#280=DIRECTION('ref_axis',(0.999999919787867,0.000400529974473312,1.05921517648284E-22));
#281=DIRECTION('',(-0.000400463567708564,0.999834122559019,0.0182089811787479));
#282=DIRECTION('center_axis',(-7.29324276671495E-6,0.0182089797181667,-0.999834202757853));
#283=DIRECTION('ref_axis',(-0.999999919787867,-0.00040052997447354,-1.05921517648284E-22));
#284=DIRECTION('',(-0.92385713891597,-0.382674156634199,-0.00696252240943667));
#285=DIRECTION('',(-0.000400463567708564,0.999834122559019,0.0182089811787479));
#286=DIRECTION('',(-0.999999919787867,-0.00040052997447354,-1.05921517648284E-22));
#287=DIRECTION('center_axis',(-0.000400463567708564,0.999834122559019,0.0182089811787479));
#288=DIRECTION('ref_axis',(0.999999919787867,0.000400529974473495,3.67574776871985E-18));
#289=DIRECTION('center_axis',(-0.38268343236509,0.923879532511287,5.73013659686709E-23));
#290=DIRECTION('ref_axis',(0.922833070778586,0.3822499737229,0.0475823608725661));
#291=DIRECTION('',(-0.000400463567708564,0.999834122559019,0.0182089811787479));
#292=DIRECTION('center_axis',(0.000400463567708564,-0.999834122559019,-0.0182089811787479));
#293=DIRECTION('ref_axis',(0.999999919787867,0.000400529974473193,1.05921517648284E-22));
#294=DIRECTION('center_axis',(7.29324276671495E-6,-0.0182089797181667,0.999834202757853));
#295=DIRECTION('ref_axis',(0.999999919787867,0.00040052997447354,1.05921517648284E-22));
#296=DIRECTION('',(0.92385713891597,0.382674156634199,0.00696252240943667));
#297=DIRECTION('',(0.999999919787867,0.00040052997447354,1.05921517648284E-22));
#298=DIRECTION('center_axis',(-0.38268343236509,0.923879532511287,5.73013659686709E-23));
#299=DIRECTION('ref_axis',(0.923879532511287,0.38268343236509,-1.22464541577E-16));
#300=DIRECTION('center_axis',(-0.38268343236509,0.923879532511287,5.73013659686709E-23));
#301=DIRECTION('ref_axis',(0.923879532511287,0.38268343236509,-1.13142472891035E-16));
#302=DIRECTION('center_axis',(0.707106781186547,-0.707106781186548,-1.08947755170087E-32));
#303=DIRECTION('ref_axis',(0.707106781186548,0.707106781186547,-1.2246453017905E-16));
#304=DIRECTION('',(-0.707106781186547,0.707106781186548,1.08947755170087E-32));
#305=DIRECTION('center_axis',(0.000400463567708564,-0.999834122559019,-0.0182089811787479));
#306=DIRECTION('ref_axis',(0.999993346645395,0.000466416343741838,-0.00361788898913625));
#307=CARTESIAN_POINT('',(0.,0.,0.));
#308=CARTESIAN_POINT('Origin',(130.194394688678,270.925263928427,19.2499998509884));
#309=CARTESIAN_POINT('',(129.470090390053,270.200959629802,19.2499998509884));
#310=CARTESIAN_POINT('',(117.061350184545,282.60969983531,19.2499998509884));
#311=CARTESIAN_POINT('',(129.470090390053,270.200959629802,19.2499998509884));
#312=CARTESIAN_POINT('',(130.194394688678,270.925263928427,19.2499998509884));
#313=CARTESIAN_POINT('',(129.419927674387,270.150796914136,19.2499998509884));
#314=CARTESIAN_POINT('',(117.485637819394,283.63402079771,19.2499998509884));
#315=CARTESIAN_POINT('',(130.194394688678,270.925263928427,19.2499998509884));
#316=CARTESIAN_POINT('',(117.563757130076,283.822617497043,19.2499998509884));
#317=CARTESIAN_POINT('Origin',(132.248354279322,272.979223519071,19.9999998509884));
#318=CARTESIAN_POINT('',(117.485637819394,283.63402079771,20.7499998509884));
#319=CARTESIAN_POINT('Origin',(118.688819491027,286.538758307366,19.9999998509884));
#320=CARTESIAN_POINT('',(130.194394688678,270.925263928427,20.7499998509884));
#321=CARTESIAN_POINT('Origin',(132.248354279322,272.979223519071,19.9999998509884));
#322=CARTESIAN_POINT('',(130.194394688678,270.925263928427,20.7499998509884));
#323=CARTESIAN_POINT('Origin',(129.419927674387,270.150796914136,20.7499998509884));
#324=CARTESIAN_POINT('',(117.061350184545,282.60969983531,20.7499998509884));
#325=CARTESIAN_POINT('',(117.370140376504,283.355185304665,20.7499998509884));
#326=CARTESIAN_POINT('',(129.470090390053,270.200959629802,20.7499998509884));
#327=CARTESIAN_POINT('',(130.692719852074,271.423589091823,20.7499998509884));
#328=CARTESIAN_POINT('',(129.470090390053,270.200959629802,20.7499998509884));
#329=CARTESIAN_POINT('Origin',(131.894801148634,272.625670388383,19.9999998509884));
#330=CARTESIAN_POINT('',(129.419927112429,270.150796352178,19.9999998509884));
#331=CARTESIAN_POINT('Origin',(132.248354279322,272.979223519071,19.9999998509884));
#332=CARTESIAN_POINT('Origin',(132.248354279322,272.979223519071,19.9999998509884));
#333=CARTESIAN_POINT('Origin',(120.273946168838,290.365592631017,19.9999998509884));
#334=CARTESIAN_POINT('Origin',(118.688819491027,286.538758307366,19.9999998509884));
#335=CARTESIAN_POINT('Origin',(286.429543253862,98.7673986986694,19.6540292085922));
#336=CARTESIAN_POINT('',(282.573311491378,117.0455809037,19.4868566653363));
#337=CARTESIAN_POINT('',(282.573311491377,117.0455809037,20.4870224900718));
#338=CARTESIAN_POINT('Origin',(286.421583845948,118.639587504669,20.0159415536348));
#339=CARTESIAN_POINT('',(282.580629422654,98.7749615845069,19.1541121072133));
#340=CARTESIAN_POINT('',(282.580629422654,98.7749615845069,19.1541121072133));
#341=CARTESIAN_POINT('',(282.580636715897,98.7567526047886,20.1539463099711));
#342=CARTESIAN_POINT('Origin',(286.429543253862,98.7673986986694,19.6540292085922));
#343=CARTESIAN_POINT('',(282.580636715897,98.7567526047886,20.1539463099711));
#344=CARTESIAN_POINT('Origin',(283.725376367549,98.7754200900081,19.1541121072133));
#345=CARTESIAN_POINT('',(283.717868732193,117.519672035758,19.4954824637443));
#346=CARTESIAN_POINT('',(285.672329706065,118.329236278265,19.5102119903732));
#347=CARTESIAN_POINT('',(283.725376367549,98.7754200900081,19.1541121072133));
#348=CARTESIAN_POINT('',(283.725376367549,98.7754200900081,19.1541121072133));
#349=CARTESIAN_POINT('',(283.92953980777,98.7755018635922,19.1541121072133));
#350=CARTESIAN_POINT('Origin',(286.429543253862,98.7673986986694,19.6540292085922));
#351=CARTESIAN_POINT('',(283.717868732193,117.519672035758,20.4956482884798));
#352=CARTESIAN_POINT('Origin',(286.421583845948,118.639587504669,20.0159415536348));
#353=CARTESIAN_POINT('',(283.725383660792,98.75721111029,20.1539463099711));
#354=CARTESIAN_POINT('',(283.725383660792,98.75721111029,20.1539463099711));
#355=CARTESIAN_POINT('Origin',(286.429543253862,98.7673986986694,19.6540292085922));
#356=CARTESIAN_POINT('Origin',(282.580636715897,98.7567526047886,20.1539463099711));
#357=CARTESIAN_POINT('',(285.177287579499,118.124183115495,20.5066469981299));
#358=CARTESIAN_POINT('',(282.548295869062,98.7567396513089,20.1539463099711));
#359=CARTESIAN_POINT('Origin',(294.246616368849,121.880822101665,19.9999998509884));
#360=CARTESIAN_POINT('',(282.539250913999,117.031472550608,19.9999998509884));
#361=CARTESIAN_POINT('Origin',(286.539250973604,118.688326824789,19.9999998509884));
#362=CARTESIAN_POINT('Origin',(132.248354279322,272.979223519071,19.9999998509884));
#363=CARTESIAN_POINT('',(129.419927112429,270.150796352178,19.9999998509884));
#364=CARTESIAN_POINT('Origin',(286.429543253862,98.7673986986694,19.6540292085922));
#365=UNCERTAINTY_MEASURE_WITH_UNIT(LENGTH_MEASURE(0.01),#369,
'DISTANCE_ACCURACY_VALUE',
'Maximum model space distance between geometric entities at asserted c
onnectivities');
#366=UNCERTAINTY_MEASURE_WITH_UNIT(LENGTH_MEASURE(0.01),#369,
'DISTANCE_ACCURACY_VALUE',
'Maximum model space distance between geometric entities at asserted c
onnectivities');
#367=(
GEOMETRIC_REPRESENTATION_CONTEXT(3)
GLOBAL_UNCERTAINTY_ASSIGNED_CONTEXT((#365))
GLOBAL_UNIT_ASSIGNED_CONTEXT((#369,#371,#372))
REPRESENTATION_CONTEXT('','3D')
);
#368=(
GEOMETRIC_REPRESENTATION_CONTEXT(3)
GLOBAL_UNCERTAINTY_ASSIGNED_CONTEXT((#366))
GLOBAL_UNIT_ASSIGNED_CONTEXT((#369,#371,#372))
REPRESENTATION_CONTEXT('','3D')
);
#369=(
LENGTH_UNIT()
NAMED_UNIT(*)
SI_UNIT(.MILLI.,.METRE.)
);
#370=(
LENGTH_UNIT()
NAMED_UNIT(*)
SI_UNIT($,.METRE.)
);
#371=(
NAMED_UNIT(*)
PLANE_ANGLE_UNIT()
SI_UNIT($,.RADIAN.)
);
#372=(
NAMED_UNIT(*)
SI_UNIT($,.STERADIAN.)
SOLID_ANGLE_UNIT()
);
#373=SHAPE_DEFINITION_REPRESENTATION(#374,#375);
#374=PRODUCT_DEFINITION_SHAPE('',$,#377);
#375=SHAPE_REPRESENTATION('',(#221),#367);
#376=PRODUCT_DEFINITION_CONTEXT('part definition',#381,'design');
#377=PRODUCT_DEFINITION('2026-06-25-14-33-47-991',
'_light.e08890fd-5a30-4811-817c-8fcfcb4fc64b',#378,#376);
#378=PRODUCT_DEFINITION_FORMATION('',$,#383);
#379=PRODUCT_RELATED_PRODUCT_CATEGORY(
'_light.e08890fd-5a30-4811-817c-8fcfcb4fc64b',
'_light.e08890fd-5a30-4811-817c-8fcfcb4fc64b',(#383));
#380=APPLICATION_PROTOCOL_DEFINITION('international standard',
'automotive_design',2009,#381);
#381=APPLICATION_CONTEXT(
'Core Data for Automotive Mechanical Design Process');
#382=PRODUCT_CONTEXT('part definition',#381,'mechanical');
#383=PRODUCT('2026-06-25-14-33-47-991',
'_light.e08890fd-5a30-4811-817c-8fcfcb4fc64b',$,(#382));
#384=PRESENTATION_STYLE_ASSIGNMENT((#385));
#385=SURFACE_STYLE_USAGE(.BOTH.,#386);
#386=SURFACE_SIDE_STYLE('',(#387));
#387=SURFACE_STYLE_FILL_AREA(#388);
#388=FILL_AREA_STYLE('Steel - Satin',(#389));
#389=FILL_AREA_STYLE_COLOUR('Steel - Satin',#390);
#390=COLOUR_RGB('Steel - Satin',0.627450980392157,0.627450980392157,0.627450980392157);
ENDSEC;
END-ISO-10303-21;
